<?xml version="1.0" encoding="UTF-8" standalone="no"?>
<!DOCTYPE svg PUBLIC "-//W3C//DTD SVG 1.1//EN" "http://www.w3.org/Graphics/SVG/1.1/DTD/svg11.dtd">
<!-- Generated by Microsoft Visio, SVG Export archivemgmtindex.svg Page-1 -->
<svg xmlns="http://www.w3.org/2000/svg" xmlns:xlink="http://www.w3.org/1999/xlink" xmlns:ev="http://www.w3.org/2001/xml-events"
		width="11.6929in" height="38.189in" viewBox="0 0 841.89 2749.61" xml:space="preserve" color-interpolation-filters="sRGB"
		class="st21">
	<style type="text/css">
	<![CDATA[
		.st1 {fill:url(#grad3-4);stroke:none;stroke-linecap:round;stroke-linejoin:round;stroke-width:0.5}
		.st2 {fill:none;stroke:none;stroke-linecap:round;stroke-linejoin:round;stroke-width:0.5}
		.st3 {fill:#1ba1e2;font-family:Segoe UI;font-size:1.00001em;font-weight:bold}
		.st4 {font-size:0.666659em;font-weight:normal}
		.st5 {fill:#1ba1e2;font-family:Segoe UI;font-size:0.833336em;font-weight:bold}
		.st6 {font-size:0.799995em}
		.st7 {font-size:0.799995em;font-weight:normal}
		.st8 {fill:#339933}
		.st9 {stroke:#ffffff;stroke-linecap:round;stroke-linejoin:round;stroke-width:0.5}
		.st10 {fill:#ffffff;font-family:Segoe UI;font-size:0.666664em}
		.st11 {font-size:1em}
		.st12 {fill:#1ba1e2;stroke:#ffffff;stroke-linecap:round;stroke-linejoin:round;stroke-width:0.5}
		.st13 {marker-end:url(#mrkr4-34);stroke:#1998d6;stroke-linecap:round;stroke-linejoin:round;stroke-width:0.5}
		.st14 {fill:#1998d6;fill-opacity:1;stroke:#1998d6;stroke-opacity:1;stroke-width:0.16556291390728}
		.st15 {fill:#d80073;stroke:#ffffff;stroke-linecap:round;stroke-linejoin:round;stroke-width:0.5}
		.st16 {fill:#ffffff;stroke:none;stroke-linecap:butt;stroke-width:7.2}
		.st17 {fill:#1076a7;font-family:Segoe UI;font-size:0.666664em}
		.st18 {fill:#f09609;stroke:#ffffff;stroke-linecap:round;stroke-linejoin:round;stroke-width:0.5}
		.st19 {stroke:#1998d6;stroke-linecap:round;stroke-linejoin:round;stroke-width:0.5}
		.st20 {fill:#1176a7;font-family:Segoe UI;font-size:0.666664em}
		.st21 {fill:none;fill-rule:evenodd;font-size:12px;overflow:visible;stroke-linecap:square;stroke-miterlimit:3}
	]]>
	</style>

	<defs id="Patterns_And_Gradients">
		<radialGradient id="grad3-4" cx="0.5" cy="0.5" r="0.73">
			<stop offset="0" stop-color="#d2ecf9" stop-opacity="1"/>
			<stop offset="1" stop-color="#e7f5fc" stop-opacity="1"/>
		</radialGradient>
	</defs>
	<defs id="Markers">
		<g id="lend4">
			<path d="M 2 1 L 0 0 L 2 -1 L 2 1 " style="stroke:none"/>
		</g>
		<marker id="mrkr4-34" class="st14" refX="-12.08" orient="auto" markerUnits="strokeWidth" overflow="visible">
			<use xlink:href="#lend4" transform="scale(-6.04,-6.04) "/>
		</marker>
	</defs>
	<g>
		<title>VBackground-1</title>
		<g id="shape2-1">
			<title>Center Gradient</title>
			<rect x="0" y="0" width="841.89" height="2749.61" class="st1"/>
		</g>
	</g>
	<g>
		<title>Page-1</title>
		<g id="shape16-5" transform="translate(14.1732,-2705.5)">
			<title>Sheet.16</title>
			<desc>Archive Server, Archive Index Management Script archivemgmtin...</desc>
			<rect x="0" y="2717.55" width="290.551" height="32.0612" class="st2"/>
			<text x="2" y="2730.35" class="st3">Archive Server, Archive Index Management Script <tspan x="2" dy="1.35em"
						class="st4">archivemgmtindex.sh</tspan></text>		</g>
		<g id="shape17-9" transform="translate(14.1732,-2393.15)">
			<title>Sheet.17</title>
			<desc>Dependencies Configuration - Archive storage location Data Pr...</desc>
			<rect x="0" y="2453.6" width="221.102" height="296.002" class="st2"/>
			<text x="2" y="2464.6" class="st5">Dependencies  <tspan x="2" dy="2.475em" class="st6">Configuration</tspan><tspan
						x="2" dy="1.2em" class="st7">-</tspan><tspan class="st7"> </tspan><tspan class="st7">Archive storage location </tspan><tspan
						x="2" dy="2.4em" class="st6">Data </tspan><tspan x="2" dy="1.2em" class="st7">Previous state data saved in the archive location</tspan></text>		</g>
		<g id="shape22-18" transform="translate(549.213,-2162.54)">
			<title>Subprocess</title>
			<desc>AMD Index Management Sub-process</desc>
			<path d="M0 2749.61 L99.21 2749.61 L99.21 2707.09 L0 2707.09 L0 2749.61 Z" class="st8"/>
			<path d="M0 2749.61 L99.21 2749.61 L99.21 2707.09 L0 2707.09 L0 2749.61" class="st9"/>
			<path d="M8.5 2749.61 L8.5 2707.09" class="st9"/>
			<path d="M90.71 2749.61 L90.71 2707.09" class="st9"/>
			<text x="29.92" y="2721.15" class="st10">AMD Index <tspan x="16.64" dy="1.2em" class="st11">Management Sub</tspan>-<tspan
						x="36.19" dy="1.2em" class="st11">process</tspan></text>		</g>
		<g id="shape41-26" transform="translate(549.213,-2077.5)">
			<title>Process.41</title>
			<desc>Iterate Years in Archive</desc>
			<rect x="0" y="2707.09" width="99.2126" height="42.5197" class="st12"/>
			<text x="9.22" y="2730.75" class="st10">Iterate Years in Archive</text>		</g>
		<g id="shape42-29" transform="translate(605.906,-2162.54)">
			<title>Dynamic connector.42</title>
			<path d="M-7.09 2749.61 L-7.09 2786.09" class="st13"/>
		</g>
		<g id="shape43-35" transform="translate(549.213,-1992.46)">
			<title>Process.43</title>
			<desc>Iterate Months in Archive</desc>
			<rect x="0" y="2707.09" width="99.2126" height="42.5197" class="st12"/>
			<text x="5.13" y="2730.75" class="st10">Iterate Months in Archive</text>		</g>
		<g id="shape44-38" transform="translate(549.213,-1907.42)">
			<title>Process.44</title>
			<desc>Iterate Days in Archive</desc>
			<rect x="0" y="2707.09" width="99.2126" height="42.5197" class="st12"/>
			<text x="10.17" y="2730.75" class="st10">Iterate Days in Archive</text>		</g>
		<g id="shape45-41" transform="translate(591.732,-2077.5)">
			<title>Dynamic connector.45</title>
			<path d="M7.09 2749.61 L7.09 2786.09" class="st13"/>
		</g>
		<g id="shape46-46" transform="translate(591.732,-1992.46)">
			<title>Dynamic connector.46</title>
			<path d="M7.09 2749.61 L7.09 2786.09" class="st13"/>
		</g>
		<g id="shape47-51" transform="translate(549.213,-1822.38)">
			<title>Decision.47</title>
			<desc>Day = ‘Yesterday’ or Force Index Flag = On</desc>
			<path d="M0 2728.35 L49.61 2707.09 L99.21 2728.35 L49.61 2749.61 L0 2728.35 Z" class="st15"/>
			<text x="14.08" y="2725.95" class="st10">Day = ‘Yesterday’ or <tspan x="10.66" dy="1.2em" class="st11">Force Index Flag = On</tspan></text>		</g>
		<g id="shape48-55" transform="translate(591.732,-1907.42)">
			<title>Dynamic connector.48</title>
			<path d="M7.09 2749.61 L7.09 2786.09" class="st13"/>
		</g>
		<g id="shape49-60" transform="translate(549.213,-1397.18)">
			<title>Decision.49</title>
			<desc>Last Day?</desc>
			<path d="M0 2728.35 L49.61 2707.09 L99.21 2728.35 L49.61 2749.61 L0 2728.35 Z" class="st15"/>
			<text x="32.97" y="2730.75" class="st10">Last Day?</text>		</g>
		<g id="shape50-63" transform="translate(542.126,-1843.64)">
			<title>Dynamic connector.50</title>
			<desc>No</desc>
			<path d="M7.09 2749.61 L-22.01 2749.61 L-22.01 3174.8 L1.05 3174.8" class="st13"/>
			<rect x="-4.15648" y="2745.93" width="10.6718" height="9.59985" class="st16"/>
			<text x="-4.16" y="2753.13" class="st17">No</text>		</g>
		<g id="shape51-70" transform="translate(591.732,-1397.18)">
			<title>Dynamic connector.51</title>
			<desc>Yes</desc>
			<path d="M7.09 2749.61 L7.09 2786.09" class="st13"/>
			<rect x="1.08677" y="2766.07" width="11.9998" height="9.59985" class="st16"/>
			<text x="1.09" y="2773.27" class="st17">Yes</text>		</g>
		<g id="shape52-77" transform="translate(648.425,-1418.44)">
			<title>Dynamic connector.52</title>
			<desc>No</desc>
			<path d="M0 2749.61 L21.26 2749.61 L21.26 2196.85 L-49.61 2196.85 L-49.61 2212.07" class="st13"/>
			<rect x="15.1712" y="2743.86" width="10.6718" height="9.59985" class="st16"/>
			<text x="15.17" y="2751.06" class="st17">No</text>		</g>
		<g id="shape53-84" transform="translate(549.213,-971.985)">
			<title>Decision.53</title>
			<desc>Last Month?</desc>
			<path d="M0 2728.35 L49.61 2707.09 L99.21 2728.35 L49.61 2749.61 L0 2728.35 Z" class="st15"/>
			<text x="27.93" y="2730.75" class="st10">Last Month?</text>		</g>
		<g id="shape54-87" transform="translate(648.425,-993.245)">
			<title>Dynamic connector.54</title>
			<desc>No</desc>
			<path d="M0 2749.61 L30.26 2749.61 L30.26 1686.61 L-49.61 1686.61 L-49.61 1701.83" class="st13"/>
			<rect x="16.1018" y="2744.81" width="10.6718" height="9.59985" class="st16"/>
			<text x="16.1" y="2752.01" class="st17">No</text>		</g>
		<g id="shape55-94" transform="translate(549.213,-546.788)">
			<title>Decision.55</title>
			<desc>Last Year?</desc>
			<path d="M0 2728.35 L49.61 2707.09 L99.21 2728.35 L49.61 2749.61 L0 2728.35 Z" class="st15"/>
			<text x="32.02" y="2730.75" class="st10">Last Year?</text>		</g>
		<g id="shape56-97" transform="translate(591.732,-971.985)">
			<title>Dynamic connector.56</title>
			<desc>Yes</desc>
			<path d="M7.09 2749.61 L7.09 2786.09" class="st13"/>
			<rect x="1.08677" y="2766.07" width="11.9998" height="9.59985" class="st16"/>
			<text x="1.09" y="2773.27" class="st17">Yes</text>		</g>
		<g id="shape57-104" transform="translate(648.425,-568.048)">
			<title>Dynamic connector.57</title>
			<desc>No</desc>
			<path d="M0 2749.61 L40.28 2749.61 L40.28 1176.38 L-49.61 1176.38 L-49.61 1191.6" class="st13"/>
			<rect x="29.1338" y="2744.81" width="10.6718" height="9.59985" class="st16"/>
			<text x="29.13" y="2752.01" class="st17">No</text>		</g>
		<g id="shape58-111" transform="translate(549.213,-475.922)">
			<title>Start/End.58</title>
			<desc>Stop</desc>
			<path d="M14.17 2749.61 L85.04 2749.61 A14.1732 14.1732 -180 0 0 85.04 2721.26 L14.17 2721.26 A14.1732 14.1732 -180 1
						 0 14.17 2749.61 Z" class="st15"/>
			<text x="41.43" y="2737.83" class="st10">Stop</text>		</g>
		<g id="shape59-114" transform="translate(591.732,-546.788)">
			<title>Dynamic connector.59</title>
			<desc>Yes</desc>
			<path d="M7.09 2749.61 L7.09 2786.09" class="st13"/>
			<rect x="1.08677" y="2766.07" width="11.9998" height="9.59985" class="st16"/>
			<text x="1.09" y="2773.27" class="st17">Yes</text>		</g>
		<g id="shape61-121" transform="translate(591.732,-1822.38)">
			<title>Dynamic connector.61</title>
			<desc>Yes</desc>
			<path d="M7.09 2749.61 L7.09 2786.09" class="st13"/>
			<rect x="1.08677" y="2766.07" width="11.9998" height="9.59985" class="st16"/>
			<text x="1.09" y="2773.27" class="st17">Yes</text>		</g>
		<g id="shape63-128" transform="translate(549.213,-1737.34)">
			<title>Process.63</title>
			<desc>Parse Day Index Files</desc>
			<rect x="0" y="2707.09" width="99.2126" height="42.5197" class="st12"/>
			<text x="12.8" y="2730.75" class="st10">Parse Day Index Files</text>		</g>
		<g id="shape68-131" transform="translate(549.213,-1652.3)">
			<title>Process.68</title>
			<desc>Concatenate with Month Index Files</desc>
			<rect x="0" y="2707.09" width="99.2126" height="42.5197" class="st12"/>
			<text x="5.96" y="2725.95" class="st10">Concatenate with Month <tspan x="31.22" dy="1.2em" class="st11">Index Files</tspan></text>		</g>
		<g id="shape69-135" transform="translate(549.213,-1567.26)">
			<title>Process.69</title>
			<desc>Deduplicate and Sort Month Index Files</desc>
			<rect x="0" y="2707.09" width="99.2126" height="42.5197" class="st12"/>
			<text x="12.41" y="2725.95" class="st10">Deduplicate and Sort <tspan x="18.31" dy="1.2em" class="st11">Month Index Files</tspan></text>		</g>
		<g id="shape74-139" transform="translate(591.732,-1737.34)">
			<title>Dynamic connector.74</title>
			<path d="M7.09 2749.61 L7.09 2786.09" class="st13"/>
		</g>
		<g id="shape75-144" transform="translate(591.732,-1652.3)">
			<title>Dynamic connector.75</title>
			<path d="M7.09 2749.61 L7.09 2786.09" class="st13"/>
		</g>
		<g id="shape76-149" transform="translate(591.732,-1567.26)">
			<title>Dynamic connector.76</title>
			<path d="M7.09 2749.61 L7.09 2786.09" class="st13"/>
		</g>
		<g id="shape84-154" transform="translate(549.213,-1482.22)">
			<title>Data</title>
			<desc>Write Month Index Data to Archive</desc>
			<path d="M-10.63 2749.61 L88.58 2749.61 L109.84 2707.09 L10.63 2707.09 L-10.63 2749.61 Z" class="st18"/>
			<text x="27.15" y="2721.15" class="st10">Write Month <tspan x="25.87" dy="1.2em" class="st11">Index Data to </tspan><tspan
						x="36.55" dy="1.2em" class="st11">Archive</tspan></text>		</g>
		<g id="shape87-159" transform="translate(591.732,-1482.22)">
			<title>Dynamic connector.87</title>
			<path d="M7.09 2749.61 L7.09 2786.09" class="st13"/>
		</g>
		<g id="group101-164" transform="translate(290.551,-1921.59)">
			<title>Sheet.101</title>
			<g id="shape18-165" transform="translate(-3.19744E-14,-751.181)">
				<title>Start/End</title>
				<desc>Start</desc>
				<path d="M14.17 2749.61 L85.04 2749.61 A14.1732 14.1732 -180 0 0 85.04 2721.26 L14.17 2721.26 A14.1732 14.1732 -180
							 1 0 14.17 2749.61 Z" class="st15"/>
				<text x="41.34" y="2737.83" class="st10">Start</text>			</g>
			<g id="shape19-168" transform="translate(-3.19744E-14,-496.063)">
				<title>Process.19</title>
				<desc>Open Archive location</desc>
				<rect x="0" y="2707.09" width="99.2126" height="42.5197" class="st12"/>
				<text x="10.51" y="2730.75" class="st10">Open Archive location</text>			</g>
			<g id="shape21-171" transform="translate(42.5197,-751.181)">
				<title>Dynamic connector</title>
				<path d="M7.09 2749.61 L7.09 2786.09" class="st13"/>
			</g>
			<g id="shape24-176" transform="translate(-2451.97,2223.46) rotate(-90)">
				<title>Side line callout</title>
				<desc>Default configured internally, override with: -b pathtoarchvi...</desc>
				<path d="M-8.83 2551.18 L18.4 2586.61" class="st19"/>
				<path d="M0 2586.61 L36.8 2586.61" class="st19"/>
				<rect x="2590.61" y="-32.8014" width="152.58" height="28.7996" transform="rotate(90)" class="st16"/>
				<text x="2590.61" y="-25.6" transform="rotate(90)" class="st20">Default configured internally, override with: <tspan
							x="2590.61" dy="1.2em" class="st11">-</tspan>b pathtoarchvie  <tspan x="2590.61" dy="1.2em"
							class="st11">Command line option</tspan></text>			</g>
			<g id="shape25-184" transform="translate(-3.19744E-14,-325.984)">
				<title>Decision.25</title>
				<desc>Running Sub-process Count</desc>
				<path d="M0 2728.35 L49.61 2707.09 L99.21 2728.35 L49.61 2749.61 L0 2728.35 Z" class="st15"/>
				<text x="11.98" y="2725.95" class="st10">Running Sub-process <tspan x="38.9" dy="1.2em" class="st11">Count</tspan></text>			</g>
			<g id="shape26-188" transform="translate(42.5197,-496.063)">
				<title>Dynamic connector.26</title>
				<path d="M7.09 2749.61 L7.09 2786.09" class="st13"/>
			</g>
			<g id="shape29-193" transform="translate(99.2126,-347.244)">
				<title>Dynamic connector.29</title>
				<desc>&#62;= CPU Count</desc>
				<path d="M0 2749.61 L21.26 2749.61 L21.26 2707.09 L-49.61 2707.09 L-49.61 2722.31" class="st13"/>
				<rect x="-18.7453" y="2702.29" width="51.664" height="9.59985" class="st16"/>
				<text x="-18.75" y="2709.49" class="st17">&#62;= CPU Count</text>			</g>
			<g id="shape30-200" transform="translate(6.39488E-14,-240.945)">
				<title>Subprocess.30</title>
				<desc>Spawn AMD Index Management Sub-process</desc>
				<path d="M0 2749.61 L99.21 2749.61 L99.21 2707.09 L0 2707.09 L0 2749.61 Z" class="st8"/>
				<path d="M0 2749.61 L99.21 2749.61 L99.21 2707.09 L0 2707.09 L0 2749.61" class="st9"/>
				<path d="M8.5 2749.61 L8.5 2707.09" class="st9"/>
				<path d="M90.71 2749.61 L90.71 2707.09" class="st9"/>
				<text x="17.16" y="2721.15" class="st10">Spawn AMD Index <tspan x="26.08" dy="1.2em" class="st11">Management </tspan><tspan
							x="27.85" dy="1.2em" class="st11">Sub</tspan>-process</text>			</g>
			<g id="shape31-208" transform="translate(42.5197,-325.984)">
				<title>Dynamic connector.31</title>
				<desc>&#60; CPU Count</desc>
				<path d="M7.09 2749.61 L7.09 2786.09" class="st13"/>
				<rect x="-16.009" y="2766.07" width="46.1915" height="9.59985" class="st16"/>
				<text x="-16.01" y="2773.27" class="st17">&#60; CPU Count</text>			</g>
			<g id="shape32-215" transform="translate(-3.19744E-14,-411.024)">
				<title>Process.32</title>
				<desc>Iterate AMDs in Archive</desc>
				<rect x="0" y="2707.09" width="99.2126" height="42.5197" class="st12"/>
				<text x="7.97" y="2730.75" class="st10">Iterate AMDs in Archive</text>			</g>
			<g id="shape33-218" transform="translate(42.5197,-411.024)">
				<title>Dynamic connector.33</title>
				<path d="M7.09 2749.61 L7.09 2786.09" class="st13"/>
			</g>
			<g id="shape34-223" transform="translate(-3.19744E-14,-155.906)">
				<title>Decision.34</title>
				<desc>Last AMD?</desc>
				<path d="M0 2728.35 L49.61 2707.09 L99.21 2728.35 L49.61 2749.61 L0 2728.35 Z" class="st15"/>
				<text x="30.77" y="2730.75" class="st10">Last AMD?</text>			</g>
			<g id="shape35-226" transform="translate(42.5197,-240.945)">
				<title>Dynamic connector.35</title>
				<path d="M7.09 2749.61 L7.09 2786.09" class="st13"/>
			</g>
			<g id="shape36-231" transform="translate(99.2126,-177.165)">
				<title>Dynamic connector.36</title>
				<desc>No</desc>
				<path d="M0 2749.61 L42.15 2749.61 L42.15 2453.09 L-49.61 2453.09 L-49.61 2467.19" class="st13"/>
				<rect x="15.8188" y="2744.81" width="10.6718" height="9.59985" class="st16"/>
				<text x="15.82" y="2752.01" class="st17">No</text>			</g>
			<g id="shape37-238" transform="translate(-3.19744E-14,-70.8661)">
				<title>Process.37</title>
				<desc>Wait for final sub-processes to finish</desc>
				<rect x="0" y="2707.09" width="99.2126" height="42.5197" class="st12"/>
				<text x="17.84" y="2725.95" class="st10">Wait for final sub-<tspan x="17.09" dy="1.2em" class="st11">processes to finish</tspan></text>			</g>
			<g id="shape38-242" transform="translate(42.5197,-155.906)">
				<title>Dynamic connector.38</title>
				<desc>Yes</desc>
				<path d="M7.09 2749.61 L7.09 2786.09" class="st13"/>
				<rect x="1.08677" y="2766.07" width="11.9998" height="9.59985" class="st16"/>
				<text x="1.09" y="2773.27" class="st17">Yes</text>			</g>
			<g id="shape39-249">
				<title>Start/End.39</title>
				<desc>Stop</desc>
				<path d="M14.17 2749.61 L85.04 2749.61 A14.1732 14.1732 -180 0 0 85.04 2721.26 L14.17 2721.26 A14.1732 14.1732 -180
							 1 0 14.17 2749.61 Z" class="st15"/>
				<text x="41.43" y="2737.83" class="st10">Stop</text>			</g>
			<g id="shape40-252" transform="translate(42.5197,-70.8661)">
				<title>Dynamic connector.40</title>
				<path d="M7.09 2749.61 L7.09 2786.09" class="st13"/>
			</g>
			<g id="shape96-257" transform="translate(-3.19744E-14,-666.142)">
				<title>Process.75</title>
				<desc>Determine Timestamp for ‘yesterday’.</desc>
				<rect x="0" y="2707.09" width="99.2126" height="42.5197" class="st12"/>
				<text x="4.44" y="2725.95" class="st10">Determine Timestamp for <tspan x="30.02" dy="1.2em" class="st11">‘</tspan>yesterday’.</text>			</g>
			<g id="shape97-261" transform="translate(42.5197,-666.142)">
				<title>Dynamic connector.97</title>
				<path d="M7.09 2749.61 L7.09 2786.09" class="st13"/>
			</g>
			<g id="shape98-266" transform="translate(-3.19744E-14,-581.102)">
				<title>Process.98</title>
				<desc>Read Flag for Forced Update</desc>
				<rect x="0" y="2707.09" width="99.2126" height="42.5197" class="st12"/>
				<text x="13.16" y="2725.95" class="st10">Read Flag for Forced <tspan x="36.67" dy="1.2em" class="st11">Update</tspan></text>			</g>
			<g id="shape99-270" transform="translate(42.5197,-581.102)">
				<title>Dynamic connector.99</title>
				<path d="M7.09 2749.61 L7.09 2786.09" class="st13"/>
			</g>
			<g id="shape100-275" transform="translate(-2451.97,2138.42) rotate(-90)">
				<title>Side line callout.100</title>
				<desc>Default is off, override with: -f Command line option</desc>
				<path d="M-8.83 2551.18 L18.4 2586.61" class="st19"/>
				<path d="M0 2586.61 L36.8 2586.61" class="st19"/>
				<rect x="2590.61" y="-32.8014" width="96.8588" height="28.7996" transform="rotate(90)" class="st16"/>
				<text x="2590.61" y="-25.6" transform="rotate(90)" class="st20">Default is off, override with: <tspan x="2590.61"
							dy="1.2em" class="st11">-</tspan>f  <tspan x="2590.61" dy="1.2em" class="st11">Command line option</tspan></text>			</g>
		</g>
		<g id="shape102-283" transform="translate(549.213,-1312.14)">
			<title>Process.102</title>
			<desc>Parse Month Index Files</desc>
			<rect x="0" y="2707.09" width="99.2126" height="42.5197" class="st12"/>
			<text x="7.75" y="2730.75" class="st10">Parse Month Index Files</text>		</g>
		<g id="shape103-286" transform="translate(549.213,-1227.1)">
			<title>Process.103</title>
			<desc>Concatenate with Year Index Files</desc>
			<rect x="0" y="2707.09" width="99.2126" height="42.5197" class="st12"/>
			<text x="10.05" y="2725.95" class="st10">Concatenate with Year <tspan x="31.22" dy="1.2em" class="st11">Index Files</tspan></text>		</g>
		<g id="shape104-290" transform="translate(549.213,-1142.06)">
			<title>Process.104</title>
			<desc>Deduplicate and Sort Year Index Files</desc>
			<rect x="0" y="2707.09" width="99.2126" height="42.5197" class="st12"/>
			<text x="3.59" y="2725.95" class="st10">Deduplicate and Sort Year <tspan x="31.22" dy="1.2em" class="st11">Index Files</tspan></text>		</g>
		<g id="shape105-294" transform="translate(549.213,-1057.02)">
			<title>Data.105</title>
			<desc>Write Year Index Data to Archive</desc>
			<path d="M-10.63 2749.61 L88.58 2749.61 L109.84 2707.09 L10.63 2707.09 L-10.63 2749.61 Z" class="st18"/>
			<text x="20.53" y="2725.95" class="st10">Write Year Index <tspan x="22.43" dy="1.2em" class="st11">Data to Archive</tspan></text>		</g>
		<g id="shape106-298" transform="translate(591.732,-1312.14)">
			<title>Dynamic connector.106</title>
			<path d="M7.09 2749.61 L7.09 2786.09" class="st13"/>
		</g>
		<g id="shape107-303" transform="translate(591.732,-1227.1)">
			<title>Dynamic connector.107</title>
			<path d="M7.09 2749.61 L7.09 2786.09" class="st13"/>
		</g>
		<g id="shape108-308" transform="translate(591.732,-1142.06)">
			<title>Dynamic connector.108</title>
			<path d="M7.09 2749.61 L7.09 2786.09" class="st13"/>
		</g>
		<g id="shape109-313" transform="translate(591.732,-1057.02)">
			<title>Dynamic connector.109</title>
			<path d="M7.09 2749.61 L7.09 2786.09" class="st13"/>
		</g>
		<g id="shape110-318" transform="translate(549.213,-886.946)">
			<title>Process.110</title>
			<desc>Parse Year Index Files</desc>
			<rect x="0" y="2707.09" width="99.2126" height="42.5197" class="st12"/>
			<text x="11.84" y="2730.75" class="st10">Parse Year Index Files</text>		</g>
		<g id="shape111-321" transform="translate(549.213,-801.906)">
			<title>Process.111</title>
			<desc>Concatenate with AMD Index Files</desc>
			<rect x="0" y="2707.09" width="99.2126" height="42.5197" class="st12"/>
			<text x="8.8" y="2725.95" class="st10">Concatenate with AMD <tspan x="31.22" dy="1.2em" class="st11">Index Files</tspan></text>		</g>
		<g id="shape112-325" transform="translate(549.213,-716.867)">
			<title>Process.112</title>
			<desc>Deduplicate and Sort AMD Index Files</desc>
			<rect x="0" y="2707.09" width="99.2126" height="42.5197" class="st12"/>
			<text x="2.34" y="2725.95" class="st10">Deduplicate and Sort AMD <tspan x="31.22" dy="1.2em" class="st11">Index Files</tspan></text>		</g>
		<g id="shape113-329" transform="translate(549.213,-631.828)">
			<title>Data.113</title>
			<desc>Write AMD Index Data to Archive</desc>
			<path d="M-10.63 2749.61 L88.58 2749.61 L109.84 2707.09 L10.63 2707.09 L-10.63 2749.61 Z" class="st18"/>
			<text x="19.28" y="2725.95" class="st10">Write AMD Index <tspan x="22.43" dy="1.2em" class="st11">Data to Archive</tspan></text>		</g>
		<g id="shape114-333" transform="translate(591.732,-886.946)">
			<title>Dynamic connector.114</title>
			<path d="M7.09 2749.61 L7.09 2786.09" class="st13"/>
		</g>
		<g id="shape115-338" transform="translate(591.732,-801.906)">
			<title>Dynamic connector.115</title>
			<path d="M7.09 2749.61 L7.09 2786.09" class="st13"/>
		</g>
		<g id="shape116-343" transform="translate(591.732,-716.867)">
			<title>Dynamic connector.116</title>
			<path d="M7.09 2749.61 L7.09 2786.09" class="st13"/>
		</g>
		<g id="shape117-348" transform="translate(591.732,-631.828)">
			<title>Dynamic connector.117</title>
			<path d="M7.09 2749.61 L7.09 2786.09" class="st13"/>
		</g>
	</g>
</svg>
