<?xml version="1.0" encoding="UTF-8" standalone="no"?>
<!DOCTYPE svg PUBLIC "-//W3C//DTD SVG 1.1//EN" "http://www.w3.org/Graphics/SVG/1.1/DTD/svg11.dtd">
<!-- Generated by Microsoft Visio, SVG Export archiveamd.svg Page-1 -->
<svg xmlns="http://www.w3.org/2000/svg" xmlns:xlink="http://www.w3.org/1999/xlink" xmlns:ev="http://www.w3.org/2001/xml-events"
		width="11.6929in" height="23.2283in" viewBox="0 0 841.89 1672.44" xml:space="preserve" color-interpolation-filters="sRGB"
		class="st20">
	<style type="text/css">
	<![CDATA[
		.st1 {fill:url(#grad3-4);stroke:none;stroke-linecap:round;stroke-linejoin:round;stroke-width:0.5}
		.st2 {marker-end:url(#mrkr4-10);stroke:#1998d6;stroke-linecap:round;stroke-linejoin:round;stroke-width:0.5}
		.st3 {fill:#1998d6;fill-opacity:1;stroke:#1998d6;stroke-opacity:1;stroke-width:0.16556291390728}
		.st4 {fill:#d80073;stroke:#ffffff;stroke-linecap:round;stroke-linejoin:round;stroke-width:0.5}
		.st5 {fill:#ffffff;font-family:Segoe UI;font-size:0.666664em}
		.st6 {fill:#1ba1e2;stroke:#ffffff;stroke-linecap:round;stroke-linejoin:round;stroke-width:0.5}
		.st7 {font-size:1em}
		.st8 {stroke:#1998d6;stroke-linecap:round;stroke-linejoin:round;stroke-width:0.5}
		.st9 {fill:#ffffff;stroke:none;stroke-linecap:butt;stroke-width:7.2}
		.st10 {fill:#1176a7;font-family:Segoe UI;font-size:0.666664em}
		.st11 {fill:none;stroke:none;stroke-linecap:round;stroke-linejoin:round;stroke-width:0.5}
		.st12 {fill:#1ba1e2;font-family:Segoe UI;font-size:1.00001em;font-weight:bold}
		.st13 {font-size:0.666659em;font-weight:normal}
		.st14 {fill:#1ba1e2;font-family:Segoe UI;font-size:0.833336em;font-weight:bold}
		.st15 {font-size:0.799995em}
		.st16 {font-size:0.799995em;font-weight:normal}
		.st17 {fill:#f09609;stroke:#ffffff;stroke-linecap:round;stroke-linejoin:round;stroke-width:0.5}
		.st18 {fill:#1076a7;font-family:Segoe UI;font-size:0.666664em}
		.st19 {fill:#ffffff;stroke:none;stroke-linecap:butt}
		.st20 {fill:none;fill-rule:evenodd;font-size:12px;overflow:visible;stroke-linecap:square;stroke-miterlimit:3}
	]]>
	</style>

	<defs id="Patterns_And_Gradients">
		<radialGradient id="grad3-4" cx="0.5" cy="0.5" r="0.73">
			<stop offset="0" stop-color="#d2ecf9" stop-opacity="1"/>
			<stop offset="1" stop-color="#e7f5fc" stop-opacity="1"/>
		</radialGradient>
	</defs>
	<defs id="Markers">
		<g id="lend4">
			<path d="M 2 1 L 0 0 L 2 -1 L 2 1 " style="stroke:none"/>
		</g>
		<marker id="mrkr4-10" class="st3" refX="-12.08" orient="auto" markerUnits="strokeWidth" overflow="visible">
			<use xlink:href="#lend4" transform="scale(-6.04,-6.04) "/>
		</marker>
	</defs>
	<g>
		<title>VBackground-1</title>
		<g id="shape2-1">
			<title>Center Gradient</title>
			<rect x="0" y="0" width="841.89" height="1672.44" class="st1"/>
		</g>
	</g>
	<g>
		<title>Page-1</title>
		<g id="shape2-5" transform="translate(467.717,-1583.69)">
			<title>Dynamic connector</title>
			<path d="M-7.09 1672.44 L-7.09 1708.92" class="st2"/>
		</g>
		<g id="shape4-11" transform="translate(411.024,-1583.69)">
			<title>Start/End</title>
			<desc>Start</desc>
			<path d="M14.17 1672.44 L85.04 1672.44 A14.1732 14.1732 -180 0 0 85.04 1644.09 L14.17 1644.09 A14.1732 14.1732 -180 1
						 0 14.17 1672.44 Z" class="st4"/>
			<text x="41.34" y="1660.67" class="st5">Start</text>		</g>
		<g id="shape10-14" transform="translate(411.024,-67.1514)">
			<title>Start/End.8</title>
			<desc>Stop</desc>
			<path d="M14.17 1672.44 L85.04 1672.44 A14.1732 14.1732 -180 0 0 85.04 1644.09 L14.17 1644.09 A14.1732 14.1732 -180 1
						 0 14.17 1672.44 Z" class="st4"/>
			<text x="41.43" y="1660.67" class="st5">Stop</text>		</g>
		<g id="shape15-17" transform="translate(411.024,-1498.65)">
			<title>Process.15</title>
			<desc>Read AMD Connection String</desc>
			<rect x="0" y="1629.92" width="99.2126" height="42.5197" class="st6"/>
			<text x="9.34" y="1648.78" class="st5">Read AMD Connection <tspan x="39.15" dy="1.2em" class="st7">String</tspan></text>		</g>
		<g id="shape61-21" transform="translate(-1000.63,112.814) rotate(-90)">
			<title>Side line callout.61</title>
			<desc>Command line option: -u amdconnectionstring</desc>
			<path d="M-43.44 1510.87 L13.6 1576.33" class="st8"/>
			<path d="M0 1576.33 L27.2 1576.33" class="st8"/>
			<rect x="1580.33" y="-23.2015" width="84.8309" height="19.1997" transform="rotate(90)" class="st9"/>
			<text x="1580.33" y="-16" transform="rotate(90)" class="st10">Command line option: <tspan x="1580.33" dy="1.2em"
						class="st7">-</tspan>u amdconnectionstring</text>		</g>
		<g id="shape63-28" transform="translate(28.3465,-1612.03)">
			<title>Sheet.63</title>
			<desc>Archive Server, AMD Archiving Sub-Script archiveamd.sh</desc>
			<rect x="0" y="1640.38" width="253.825" height="32.0612" class="st11"/>
			<text x="2" y="1653.18" class="st12">Archive Server, AMD Archiving Sub-Script <tspan x="2" dy="1.35em" class="st13">archiveamd.sh</tspan></text>		</g>
		<g id="shape65-32" transform="translate(28.3465,-1299.69)">
			<title>Sheet.65</title>
			<desc>Dependencies Configuration passed data from rtmarchive.sh scr...</desc>
			<rect x="0" y="1376.44" width="221.102" height="296.002" class="st11"/>
			<text x="2" y="1387.44" class="st14">Dependencies  <tspan x="2" dy="2.475em" class="st15">Configuration</tspan><tspan
						x="2" dy="1.2em" class="st16">passed data from rtmarchive.sh script. </tspan><tspan x="2" dy="1.2em"
						class="st16">-</tspan><tspan class="st16"> </tspan><tspan class="st16">AMD name </tspan><tspan x="2"
						dy="1.2em" class="st16">-</tspan><tspan class="st16"> </tspan><tspan class="st16">AMD connection string </tspan><tspan
						x="2" dy="1.2em" class="st16">-</tspan><tspan class="st16"> </tspan><tspan class="st16">Archive storage location </tspan><tspan
						x="2" dy="2.4em" class="st15">Software</tspan><tspan x="2" dy="1.2em" class="st16">bash (shell script processor)  </tspan><tspan
						x="2" dy="2.4em" class="st15">Data </tspan><tspan x="2" dy="1.2em" class="st16">Previous state data saved in the archive location</tspan></text>		</g>
		<g id="shape75-50" transform="translate(453.543,-1498.65)">
			<title>Dynamic connector.75</title>
			<path d="M7.09 1672.44 L7.09 1708.92" class="st2"/>
		</g>
		<g id="shape74-55" transform="translate(411.024,-1413.61)">
			<title>Process.74</title>
			<desc>Query AMD timestamps API</desc>
			<rect x="0" y="1629.92" width="99.2126" height="42.5197" class="st6"/>
			<text x="7.3" y="1648.78" class="st5">Query AMD timestamps <tspan x="43.72" dy="1.2em" class="st7">API</tspan></text>		</g>
		<g id="shape76-59" transform="translate(411.024,-1328.57)">
			<title>Data</title>
			<desc>AMDs available timestamps list</desc>
			<path d="M-10.63 1672.44 L88.58 1672.44 L109.84 1629.92 L10.63 1629.92 L-10.63 1672.44 Z" class="st17"/>
			<text x="22.47" y="1648.78" class="st5">AMDs available <tspan x="23.08" dy="1.2em" class="st7">timestamps list</tspan></text>		</g>
		<g id="shape77-63" transform="translate(453.543,-1413.61)">
			<title>Dynamic connector.77</title>
			<path d="M7.09 1672.44 L7.09 1708.92" class="st2"/>
		</g>
		<g id="shape79-68" transform="translate(453.543,-1328.57)">
			<title>Dynamic connector.79</title>
			<path d="M7.09 1672.44 L7.09 1708.92" class="st2"/>
		</g>
		<g id="shape78-73" transform="translate(411.024,-1243.53)">
			<title>Process.78</title>
			<desc>Compare Available vs. previously downloaded list</desc>
			<rect x="0" y="1629.92" width="99.2126" height="42.5197" class="st6"/>
			<text x="10.88" y="1648.78" class="st5">Compare Available vs. <tspan x="2.49" dy="1.2em" class="st7">previously downloaded list</tspan></text>		</g>
		<g id="shape80-77" transform="translate(269.291,-1243.53)">
			<title>Data.80</title>
			<desc>AMDs previously downloaded timestamps list</desc>
			<path d="M-10.63 1672.44 L88.58 1672.44 L109.84 1629.92 L10.63 1629.92 L-10.63 1672.44 Z" class="st17"/>
			<text x="19.91" y="1643.98" class="st5">AMDs previously <tspan x="27.6" dy="1.2em" class="st7">downloaded </tspan><tspan
						x="23.08" dy="1.2em" class="st7">timestamps list</tspan></text>		</g>
		<g id="shape82-82" transform="translate(368.504,-1257.7)">
			<title>Dynamic connector.82</title>
			<path d="M0 1665.35 L36.48 1665.35" class="st2"/>
		</g>
		<g id="shape84-87" transform="translate(453.543,-1243.53)">
			<title>Dynamic connector.84</title>
			<path d="M7.09 1672.44 L7.09 1708.92" class="st2"/>
		</g>
		<g id="shape83-92" transform="translate(411.024,-1158.49)">
			<title>Data.83</title>
			<desc>List of timestamps to be downloaded</desc>
			<path d="M-10.63 1672.44 L88.58 1672.44 L109.84 1629.92 L10.63 1629.92 L-10.63 1672.44 Z" class="st17"/>
			<text x="39.01" y="1643.98" class="st5">List of <tspan x="18.83" dy="1.2em" class="st7">timestamps to be </tspan><tspan
						x="27.6" dy="1.2em" class="st7">downloaded</tspan></text>		</g>
		<g id="shape85-97" transform="translate(411.024,-1073.45)">
			<title>Process.85</title>
			<desc>Query AMD status API</desc>
			<rect x="0" y="1629.92" width="99.2126" height="42.5197" class="st6"/>
			<text x="10.36" y="1653.58" class="st5">Query AMD status API</text>		</g>
		<g id="shape86-100" transform="translate(453.543,-1158.49)">
			<title>Dynamic connector.86</title>
			<path d="M7.09 1672.44 L7.09 1708.92" class="st2"/>
		</g>
		<g id="shape87-105" transform="translate(411.024,-988.411)">
			<title>Decision.87</title>
			<desc>Classic or HS AMD?</desc>
			<path d="M0 1651.18 L49.61 1629.92 L99.21 1651.18 L49.61 1672.44 L0 1651.18 Z" class="st4"/>
			<text x="15.16" y="1653.58" class="st5">Classic or HS AMD?</text>		</g>
		<g id="shape88-108" transform="translate(453.543,-1073.45)">
			<title>Dynamic connector.88</title>
			<path d="M7.09 1672.44 L7.09 1708.92" class="st2"/>
		</g>
		<g id="shape89-113" transform="translate(340.157,-903.372)">
			<title>Process.89</title>
			<desc>Use classic file extensions</desc>
			<rect x="0" y="1629.92" width="99.2126" height="42.5197" class="st6"/>
			<text x="4.83" y="1653.58" class="st5">Use classic file extensions</text>		</g>
		<g id="shape90-116" transform="translate(481.89,-903.372)">
			<title>Process.90</title>
			<desc>Use HS file extensions</desc>
			<rect x="0" y="1629.92" width="99.2126" height="42.5197" class="st6"/>
			<text x="10.93" y="1653.58" class="st5">Use HS file extensions</text>		</g>
		<g id="shape91-119" transform="translate(460.63,-988.411)">
			<title>Dynamic connector.91</title>
			<desc>Classic</desc>
			<path d="M0 1672.44 L0 1693.7 L-70.87 1693.7 L-70.87 1708.92" class="st2"/>
			<rect x="-47.1244" y="1688.9" width="23.3825" height="9.59985" class="st9"/>
			<text x="-47.12" y="1696.1" class="st18">Classic</text>		</g>
		<g id="shape92-126" transform="translate(460.63,-988.411)">
			<title>Dynamic connector.92</title>
			<desc>HS</desc>
			<path d="M0 1672.44 L0 1693.7 L70.87 1693.7 L70.87 1708.92" class="st2"/>
			<rect x="30.4681" y="1688.9" width="9.92972" height="9.59985" class="st9"/>
			<text x="30.47" y="1696.1" class="st18">HS</text>		</g>
		<g id="shape94-133" transform="translate(411.024,-818.332)">
			<title>Process.94</title>
			<desc>Build data download list</desc>
			<rect x="0" y="1629.92" width="99.2126" height="42.5197" class="st6"/>
			<text x="7.14" y="1653.58" class="st5">Build data download list</text>		</g>
		<g id="shape95-136" transform="translate(389.764,-903.372)">
			<title>Dynamic connector.95</title>
			<path d="M0 1672.44 L0 1693.7 L70.87 1693.7 L70.87 1708.92" class="st2"/>
		</g>
		<g id="shape96-141" transform="translate(531.496,-903.372)">
			<title>Dynamic connector.96</title>
			<path d="M0 1672.44 L0 1693.7 L-70.87 1693.7 L-70.87 1708.92" class="st2"/>
		</g>
		<g id="shape97-146" transform="translate(411.024,-733.293)">
			<title>Data.97</title>
			<desc>List of data files to download</desc>
			<path d="M-10.63 1672.44 L88.58 1672.44 L109.84 1629.92 L10.63 1629.92 L-10.63 1672.44 Z" class="st17"/>
			<text x="22.06" y="1648.78" class="st5">List of data files <tspan x="27.25" dy="1.2em" class="st7">to download</tspan></text>		</g>
		<g id="shape98-150" transform="translate(467.717,-818.332)">
			<title>Dynamic connector.98</title>
			<path d="M-7.09 1672.44 L-7.09 1708.92" class="st2"/>
		</g>
		<g id="shape99-155" transform="translate(411.024,-648.254)">
			<title>Process.99</title>
			<desc>Query AMDs download API</desc>
			<rect x="0" y="1629.92" width="99.2126" height="42.5197" class="st6"/>
			<text x="8.49" y="1648.78" class="st5">Query AMDs download <tspan x="43.72" dy="1.2em" class="st7">API</tspan></text>		</g>
		<g id="shape100-159" transform="translate(411.024,-478.175)">
			<title>Decision.100</title>
			<desc>More Files?</desc>
			<path d="M0 1651.18 L49.61 1629.92 L99.21 1651.18 L49.61 1672.44 L0 1651.18 Z" class="st4"/>
			<text x="29.62" y="1653.58" class="st5">More Files?</text>		</g>
		<g id="shape101-162" transform="translate(453.543,-733.293)">
			<title>Dynamic connector.101</title>
			<path d="M7.09 1672.44 L7.09 1708.92" class="st2"/>
		</g>
		<g id="shape103-167" transform="translate(503.15,-499.435)">
			<title>Dynamic connector.103</title>
			<desc>Yes</desc>
			<path d="M7.09 1672.44 L28.35 1672.44 L28.35 1417.32 L13.13 1417.32" class="st2"/>
			<rect x="22.3466" y="1540.08" width="11.9998" height="9.59985" class="st9"/>
			<text x="22.35" y="1547.28" class="st18">Yes</text>		</g>
		<g id="shape104-174" transform="translate(411.024,-563.214)">
			<title>Process.104</title>
			<desc>Extract search metadata from downloaded files</desc>
			<rect x="0" y="1629.92" width="99.2126" height="42.5197" class="st6"/>
			<text x="7.54" y="1648.78" class="st5">Extract search metadata <tspan x="10" dy="1.2em" class="st7">from downloaded files</tspan></text>		</g>
		<g id="shape105-178" transform="translate(467.717,-648.254)">
			<title>Dynamic connector.105</title>
			<path d="M-7.09 1672.44 L-7.09 1708.92" class="st2"/>
		</g>
		<g id="shape106-183" transform="translate(269.291,-563.214)">
			<title>Data.106</title>
			<desc>Search metadata</desc>
			<path d="M-10.63 1672.44 L88.58 1672.44 L109.84 1629.92 L10.63 1629.92 L-10.63 1672.44 Z" class="st17"/>
			<text x="20.05" y="1653.58" class="st5">Search metadata</text>		</g>
		<g id="shape107-186" transform="translate(411.024,-577.388)">
			<title>Dynamic connector.107</title>
			<path d="M0 1665.35 L-36.48 1665.35" class="st2"/>
		</g>
		<g id="shape108-191" transform="translate(467.716,-563.214)">
			<title>Dynamic connector.108</title>
			<path d="M-7.09 1672.44 L-7.09 1708.92" class="st2"/>
		</g>
		<g id="shape110-196" transform="translate(411.024,-393.136)">
			<title>Process.110</title>
			<desc>Query AMD configuration API</desc>
			<rect x="0" y="1629.92" width="99.2126" height="42.5197" class="st6"/>
			<text x="4.09" y="1648.78" class="st5">Query AMD configuration <tspan x="43.72" dy="1.2em" class="st7">API</tspan></text>		</g>
		<g id="shape111-200" transform="translate(467.716,-478.175)">
			<title>Dynamic connector.111</title>
			<desc>No</desc>
			<path d="M-7.09 1672.44 L-7.09 1708.92" class="st2"/>
			<rect x="-12.4226" y="1688.9" width="10.6718" height="9.59985" class="st19"/>
			<text x="-12.42" y="1696.1" class="st18">No</text>		</g>
		<g id="shape112-207" transform="translate(411.024,-223.057)">
			<title>Process.112</title>
			<desc>Download AMD configuration file</desc>
			<rect x="0" y="1629.92" width="99.2126" height="42.5197" class="st6"/>
			<text x="21.53" y="1648.78" class="st5">Download AMD <tspan x="19.58" dy="1.2em" class="st7">configuration file</tspan></text>		</g>
		<g id="shape113-211" transform="translate(411.024,-308.096)">
			<title>Data.113</title>
			<desc>Configuration file list</desc>
			<path d="M-10.63 1672.44 L88.58 1672.44 L109.84 1629.92 L10.63 1629.92 L-10.63 1672.44 Z" class="st17"/>
			<text x="18.95" y="1648.78" class="st5">Configuration file <tspan x="44.62" dy="1.2em" class="st7">list</tspan></text>		</g>
		<g id="shape114-215" transform="translate(453.543,-393.136)">
			<title>Dynamic connector.114</title>
			<path d="M7.09 1672.44 L7.09 1708.92" class="st2"/>
		</g>
		<g id="shape115-220" transform="translate(453.543,-308.096)">
			<title>Dynamic connector.115</title>
			<path d="M7.09 1672.44 L7.09 1708.92" class="st2"/>
		</g>
		<g id="shape118-225" transform="translate(411.024,-138.018)">
			<title>Decision.118</title>
			<desc>More Files?</desc>
			<path d="M0 1651.18 L49.61 1629.92 L99.21 1651.18 L49.61 1672.44 L0 1651.18 Z" class="st4"/>
			<text x="29.62" y="1653.58" class="st5">More Files?</text>		</g>
		<g id="shape119-228" transform="translate(517.323,-159.277)">
			<title>Dynamic connector.119</title>
			<desc>Yes</desc>
			<path d="M-7.09 1672.44 L14.17 1672.44 L14.17 1502.36 L-1.05 1502.36" class="st2"/>
			<rect x="8.17337" y="1582.6" width="11.9998" height="9.59985" class="st19"/>
			<text x="8.17" y="1589.8" class="st18">Yes</text>		</g>
		<g id="shape120-235" transform="translate(453.543,-223.057)">
			<title>Dynamic connector.120</title>
			<path d="M7.09 1672.44 L7.09 1708.92" class="st2"/>
		</g>
		<g id="shape121-240" transform="translate(467.717,-138.018)">
			<title>Dynamic connector.121</title>
			<path d="M-7.09 1672.44 L-7.09 1708.92" class="st2"/>
		</g>
		<g id="shape122-245" transform="translate(269.291,-648.254)">
			<title>Data.122</title>
			<desc>AMD data</desc>
			<path d="M-10.63 1672.44 L88.58 1672.44 L109.84 1629.92 L10.63 1629.92 L-10.63 1672.44 Z" class="st17"/>
			<text x="31.75" y="1653.58" class="st5">AMD data</text>		</g>
		<g id="shape123-248" transform="translate(411.024,-662.427)">
			<title>Dynamic connector.123</title>
			<path d="M0 1665.35 L-36.48 1665.35" class="st2"/>
		</g>
		<g id="shape124-253" transform="translate(269.291,-308.096)">
			<title>Data.124</title>
			<desc>AMD configuration data</desc>
			<path d="M-10.63 1672.44 L88.58 1672.44 L109.84 1629.92 L10.63 1629.92 L-10.63 1672.44 Z" class="st17"/>
			<text x="40.63" y="1643.98" class="st5">AMD <tspan x="25.95" dy="1.2em" class="st7">configuration </tspan><tspan
						x="41.83" dy="1.2em" class="st7">data</tspan></text>		</g>
		<g id="shape125-258" transform="translate(411.024,-322.269)">
			<title>Dynamic connector.125</title>
			<path d="M0 1665.35 L-36.48 1665.35" class="st2"/>
		</g>
	</g>
</svg>
