<?xml version="1.0" encoding="UTF-8" standalone="no"?>
<!DOCTYPE svg PUBLIC "-//W3C//DTD SVG 1.1//EN" "http://www.w3.org/Graphics/SVG/1.1/DTD/svg11.dtd">
<!-- Generated by Microsoft Visio, SVG Export archivemgmt.svg Page-1 -->
<svg xmlns="http://www.w3.org/2000/svg" xmlns:xlink="http://www.w3.org/1999/xlink" xmlns:ev="http://www.w3.org/2001/xml-events"
		width="11.6929in" height="38.189in" viewBox="0 0 841.89 2749.61" xml:space="preserve" color-interpolation-filters="sRGB"
		class="st21">
	<style type="text/css">
	<![CDATA[
		.st1 {fill:url(#grad3-4);stroke:none;stroke-linecap:round;stroke-linejoin:round;stroke-width:0.5}
		.st2 {fill:none;stroke:none;stroke-linecap:round;stroke-linejoin:round;stroke-width:0.5}
		.st3 {fill:#1ba1e2;font-family:Segoe UI;font-size:1.00001em;font-weight:bold}
		.st4 {font-size:0.666659em;font-weight:normal}
		.st5 {fill:#1ba1e2;font-family:Segoe UI;font-size:0.833336em;font-weight:bold}
		.st6 {font-size:0.799995em}
		.st7 {font-size:0.799995em;font-weight:normal}
		.st8 {fill:#d80073;stroke:#ffffff;stroke-linecap:round;stroke-linejoin:round;stroke-width:0.5}
		.st9 {fill:#ffffff;font-family:Segoe UI;font-size:0.666664em}
		.st10 {fill:#1ba1e2;stroke:#ffffff;stroke-linecap:round;stroke-linejoin:round;stroke-width:0.5}
		.st11 {marker-end:url(#mrkr4-30);stroke:#1998d6;stroke-linecap:round;stroke-linejoin:round;stroke-width:0.5}
		.st12 {fill:#1998d6;fill-opacity:1;stroke:#1998d6;stroke-opacity:1;stroke-width:0.16556291390728}
		.st13 {stroke:#1998d6;stroke-linecap:round;stroke-linejoin:round;stroke-width:0.5}
		.st14 {fill:#ffffff;stroke:none;stroke-linecap:butt;stroke-width:7.2}
		.st15 {fill:#1176a7;font-family:Segoe UI;font-size:0.666664em}
		.st16 {font-size:1em}
		.st17 {fill:#1076a7;font-family:Segoe UI;font-size:0.666664em}
		.st18 {fill:#339933}
		.st19 {stroke:#ffffff;stroke-linecap:round;stroke-linejoin:round;stroke-width:0.5}
		.st20 {fill:#f09609;stroke:#ffffff;stroke-linecap:round;stroke-linejoin:round;stroke-width:0.5}
		.st21 {fill:none;fill-rule:evenodd;font-size:12px;overflow:visible;stroke-linecap:square;stroke-miterlimit:3}
	]]>
	</style>

	<defs id="Patterns_And_Gradients">
		<radialGradient id="grad3-4" cx="0.5" cy="0.5" r="0.73">
			<stop offset="0" stop-color="#d2ecf9" stop-opacity="1"/>
			<stop offset="1" stop-color="#e7f5fc" stop-opacity="1"/>
		</radialGradient>
	</defs>
	<defs id="Markers">
		<g id="lend4">
			<path d="M 2 1 L 0 0 L 2 -1 L 2 1 " style="stroke:none"/>
		</g>
		<marker id="mrkr4-30" class="st12" refX="-12.08" orient="auto" markerUnits="strokeWidth" overflow="visible">
			<use xlink:href="#lend4" transform="scale(-6.04,-6.04) "/>
		</marker>
	</defs>
	<g>
		<title>VBackground-1</title>
		<g id="shape2-1">
			<title>Center Gradient</title>
			<rect x="0" y="0" width="841.89" height="2749.61" class="st1"/>
		</g>
	</g>
	<g>
		<title>Page-1</title>
		<g id="shape16-5" transform="translate(14.1732,-2705.5)">
			<title>Sheet.16</title>
			<desc>Archive Server, Archive Management Script archivemgmt.sh</desc>
			<rect x="0" y="2717.55" width="253.825" height="32.0612" class="st2"/>
			<text x="2" y="2730.35" class="st3">Archive Server, Archive Management Script <tspan x="2" dy="1.35em" class="st4">archivemgmt.sh</tspan></text>		</g>
		<g id="shape17-9" transform="translate(14.1732,-2393.15)">
			<title>Sheet.17</title>
			<desc>Dependencies Configuration - Archive storage location Data Pr...</desc>
			<rect x="0" y="2453.6" width="221.102" height="296.002" class="st2"/>
			<text x="2" y="2464.6" class="st5">Dependencies  <tspan x="2" dy="2.475em" class="st6">Configuration</tspan><tspan
						x="2" dy="1.2em" class="st7">-</tspan><tspan class="st7"> </tspan><tspan class="st7">Archive storage location </tspan><tspan
						x="2" dy="2.4em" class="st6">Data </tspan><tspan x="2" dy="1.2em" class="st7">Previous state data saved in the archive location</tspan></text>		</g>
		<g id="group93-18" transform="translate(290.551,-2111.81)">
			<title>Sheet.93</title>
			<g id="shape18-19" transform="translate(-3.19744E-14,-581.102)">
				<title>Start/End</title>
				<desc>Start</desc>
				<path d="M14.17 2749.61 L85.04 2749.61 A14.1732 14.1732 -180 0 0 85.04 2721.26 L14.17 2721.26 A14.1732 14.1732 -180
							 1 0 14.17 2749.61 Z" class="st8"/>
				<text x="41.34" y="2737.83" class="st9">Start</text>			</g>
			<g id="shape19-22" transform="translate(-3.19744E-14,-496.063)">
				<title>Process.75</title>
				<desc>Open Archive location</desc>
				<rect x="0" y="2707.09" width="99.2126" height="42.5197" class="st10"/>
				<text x="10.51" y="2730.75" class="st9">Open Archive location</text>			</g>
			<g id="shape21-25" transform="translate(42.5197,-581.102)">
				<title>Dynamic connector</title>
				<path d="M7.09 2749.61 L7.09 2786.09" class="st11"/>
			</g>
			<g id="shape24-31" transform="translate(-2459.06,2208.17) rotate(-90)">
				<title>Side line callout</title>
				<desc>Default configured internally, override with: -b pathtoarchvi...</desc>
				<path d="M-24.12 2558.27 L18.4 2586.61" class="st13"/>
				<path d="M0 2586.61 L36.8 2586.61" class="st13"/>
				<rect x="2590.61" y="-32.8014" width="152.58" height="28.7996" transform="rotate(90)" class="st14"/>
				<text x="2590.61" y="-25.6" transform="rotate(90)" class="st15">Default configured internally, override with: <tspan
							x="2590.61" dy="1.2em" class="st16">-</tspan>b pathtoarchvie  <tspan x="2590.61" dy="1.2em"
							class="st16">Command line option</tspan></text>			</g>
			<g id="shape25-39" transform="translate(-3.19744E-14,-325.984)">
				<title>Decision.25</title>
				<desc>Running Sub-process Count</desc>
				<path d="M0 2728.35 L49.61 2707.09 L99.21 2728.35 L49.61 2749.61 L0 2728.35 Z" class="st8"/>
				<text x="11.98" y="2725.95" class="st9">Running Sub-process <tspan x="38.9" dy="1.2em" class="st16">Count</tspan></text>			</g>
			<g id="shape26-43" transform="translate(42.5197,-496.063)">
				<title>Dynamic connector.26</title>
				<path d="M7.09 2749.61 L7.09 2786.09" class="st11"/>
			</g>
			<g id="shape29-48" transform="translate(99.2126,-347.244)">
				<title>Dynamic connector.29</title>
				<desc>&#62;= CPU Count</desc>
				<path d="M0 2749.61 L21.26 2749.61 L21.26 2707.09 L-49.61 2707.09 L-49.61 2722.31" class="st11"/>
				<rect x="-18.7453" y="2702.29" width="51.664" height="9.59985" class="st14"/>
				<text x="-18.75" y="2709.49" class="st17">&#62;= CPU Count</text>			</g>
			<g id="shape30-55" transform="translate(6.39488E-14,-240.945)">
				<title>Subprocess.30</title>
				<desc>Spawn AMD Management Sub-process</desc>
				<path d="M0 2749.61 L99.21 2749.61 L99.21 2707.09 L0 2707.09 L0 2749.61 Z" class="st18"/>
				<path d="M0 2749.61 L99.21 2749.61 L99.21 2707.09 L0 2707.09 L0 2749.61" class="st19"/>
				<path d="M8.5 2749.61 L8.5 2707.09" class="st19"/>
				<path d="M90.71 2749.61 L90.71 2707.09" class="st19"/>
				<text x="27.87" y="2721.15" class="st9">Spawn AMD <tspan x="26.08" dy="1.2em" class="st16">Management </tspan><tspan
							x="27.85" dy="1.2em" class="st16">Sub</tspan>-process</text>			</g>
			<g id="shape31-63" transform="translate(42.5197,-325.984)">
				<title>Dynamic connector.31</title>
				<desc>&#60; CPU Count</desc>
				<path d="M7.09 2749.61 L7.09 2786.09" class="st11"/>
				<rect x="-16.009" y="2766.07" width="46.1915" height="9.59985" class="st14"/>
				<text x="-16.01" y="2773.27" class="st17">&#60; CPU Count</text>			</g>
			<g id="shape32-70" transform="translate(-3.19744E-14,-411.024)">
				<title>Process.32</title>
				<desc>Iterate AMDs in Archive</desc>
				<rect x="0" y="2707.09" width="99.2126" height="42.5197" class="st10"/>
				<text x="7.97" y="2730.75" class="st9">Iterate AMDs in Archive</text>			</g>
			<g id="shape33-73" transform="translate(42.5197,-411.024)">
				<title>Dynamic connector.33</title>
				<path d="M7.09 2749.61 L7.09 2786.09" class="st11"/>
			</g>
			<g id="shape34-78" transform="translate(-3.19744E-14,-155.906)">
				<title>Decision.34</title>
				<desc>Last AMD?</desc>
				<path d="M0 2728.35 L49.61 2707.09 L99.21 2728.35 L49.61 2749.61 L0 2728.35 Z" class="st8"/>
				<text x="30.77" y="2730.75" class="st9">Last AMD?</text>			</g>
			<g id="shape35-81" transform="translate(42.5197,-240.945)">
				<title>Dynamic connector.35</title>
				<path d="M7.09 2749.61 L7.09 2786.09" class="st11"/>
			</g>
			<g id="shape36-86" transform="translate(99.2126,-177.165)">
				<title>Dynamic connector.36</title>
				<desc>No</desc>
				<path d="M0 2749.61 L42.15 2749.61 L42.15 2451.97 L-49.61 2451.97 L-49.61 2467.19" class="st11"/>
				<rect x="15.9239" y="2744.81" width="10.6718" height="9.59985" class="st14"/>
				<text x="15.92" y="2752.01" class="st17">No</text>			</g>
			<g id="shape37-93" transform="translate(-3.19744E-14,-70.8661)">
				<title>Process.37</title>
				<desc>Wait for final sub-processes to finish</desc>
				<rect x="0" y="2707.09" width="99.2126" height="42.5197" class="st10"/>
				<text x="17.84" y="2725.95" class="st9">Wait for final sub-<tspan x="17.09" dy="1.2em" class="st16">processes to finish</tspan></text>			</g>
			<g id="shape38-97" transform="translate(42.5197,-155.906)">
				<title>Dynamic connector.38</title>
				<desc>Yes</desc>
				<path d="M7.09 2749.61 L7.09 2786.09" class="st11"/>
				<rect x="1.08677" y="2766.07" width="11.9998" height="9.59985" class="st14"/>
				<text x="1.09" y="2773.27" class="st17">Yes</text>			</g>
			<g id="shape39-104">
				<title>Start/End.39</title>
				<desc>Stop</desc>
				<path d="M14.17 2749.61 L85.04 2749.61 A14.1732 14.1732 -180 0 0 85.04 2721.26 L14.17 2721.26 A14.1732 14.1732 -180
							 1 0 14.17 2749.61 Z" class="st8"/>
				<text x="41.43" y="2737.83" class="st9">Stop</text>			</g>
			<g id="shape40-107" transform="translate(42.5197,-70.8661)">
				<title>Dynamic connector.40</title>
				<path d="M7.09 2749.61 L7.09 2786.09" class="st11"/>
			</g>
		</g>
		<g id="group94-112" transform="translate(542.126,-496.063)">
			<title>Sheet.94</title>
			<g id="shape22-113" transform="translate(7.08661,-1856.69)">
				<title>Subprocess</title>
				<desc>AMD Management Sub-process</desc>
				<path d="M0 2749.61 L99.21 2749.61 L99.21 2707.09 L0 2707.09 L0 2749.61 Z" class="st18"/>
				<path d="M0 2749.61 L99.21 2749.61 L99.21 2707.09 L0 2707.09 L0 2749.61" class="st19"/>
				<path d="M8.5 2749.61 L8.5 2707.09" class="st19"/>
				<path d="M90.71 2749.61 L90.71 2707.09" class="st19"/>
				<text x="16.01" y="2725.95" class="st9">AMD Management <tspan x="27.85" dy="1.2em" class="st16">Sub</tspan>-process</text>			</g>
			<g id="shape41-120" transform="translate(7.08661,-1771.65)">
				<title>Process.41</title>
				<desc>Iterate Years in Archive</desc>
				<rect x="0" y="2707.09" width="99.2126" height="42.5197" class="st10"/>
				<text x="9.22" y="2730.75" class="st9">Iterate Years in Archive</text>			</g>
			<g id="shape42-123" transform="translate(63.7795,-1856.69)">
				<title>Dynamic connector.42</title>
				<path d="M-7.09 2749.61 L-7.09 2786.09" class="st11"/>
			</g>
			<g id="shape43-128" transform="translate(7.08661,-1686.61)">
				<title>Process.43</title>
				<desc>Iterate Months in Archive</desc>
				<rect x="0" y="2707.09" width="99.2126" height="42.5197" class="st10"/>
				<text x="5.13" y="2730.75" class="st9">Iterate Months in Archive</text>			</g>
			<g id="shape44-131" transform="translate(7.08661,-1601.57)">
				<title>Process.44</title>
				<desc>Iterate Days in Archive</desc>
				<rect x="0" y="2707.09" width="99.2126" height="42.5197" class="st10"/>
				<text x="10.17" y="2730.75" class="st9">Iterate Days in Archive</text>			</g>
			<g id="shape45-134" transform="translate(49.6063,-1771.65)">
				<title>Dynamic connector.45</title>
				<path d="M7.09 2749.61 L7.09 2786.09" class="st11"/>
			</g>
			<g id="shape46-139" transform="translate(49.6063,-1686.61)">
				<title>Dynamic connector.46</title>
				<path d="M7.09 2749.61 L7.09 2786.09" class="st11"/>
			</g>
			<g id="shape47-144" transform="translate(7.08661,-1516.54)">
				<title>Decision.47</title>
				<desc>Day already archived?</desc>
				<path d="M0 2728.35 L49.61 2707.09 L99.21 2728.35 L49.61 2749.61 L0 2728.35 Z" class="st8"/>
				<text x="11.17" y="2730.75" class="st9">Day already archived?</text>			</g>
			<g id="shape48-147" transform="translate(49.6063,-1601.57)">
				<title>Dynamic connector.48</title>
				<path d="M7.09 2749.61 L7.09 2786.09" class="st11"/>
			</g>
			<g id="shape49-152" transform="translate(7.08661,-240.945)">
				<title>Decision.49</title>
				<desc>Last Day?</desc>
				<path d="M0 2728.35 L49.61 2707.09 L99.21 2728.35 L49.61 2749.61 L0 2728.35 Z" class="st8"/>
				<text x="32.97" y="2730.75" class="st9">Last Day?</text>			</g>
			<g id="shape50-155" transform="translate(-7.59393E-14,-1537.8)">
				<title>Dynamic connector.50</title>
				<desc>Yes</desc>
				<path d="M7.09 2749.61 L-22.01 2749.61 L-22.01 4025.2 L1.05 4025.2" class="st11"/>
				<rect x="-28.0057" y="2792.28" width="11.9998" height="9.59985" class="st14"/>
				<text x="-28.01" y="2799.48" class="st17">Yes</text>			</g>
			<g id="shape51-162" transform="translate(49.6063,-240.945)">
				<title>Dynamic connector.51</title>
				<desc>Yes</desc>
				<path d="M7.09 2749.61 L7.09 2786.09" class="st11"/>
				<rect x="1.08677" y="2766.07" width="11.9998" height="9.59985" class="st14"/>
				<text x="1.09" y="2773.27" class="st17">Yes</text>			</g>
			<g id="shape52-169" transform="translate(106.299,-262.205)">
				<title>Dynamic connector.52</title>
				<desc>No</desc>
				<path d="M0 2749.61 L21.26 2749.61 L21.26 1346.46 L-49.61 1346.46 L-49.61 1361.68" class="st11"/>
				<rect x="14.9728" y="2719.38" width="10.6718" height="9.59985" class="st14"/>
				<text x="14.97" y="2726.58" class="st17">No</text>			</g>
			<g id="shape53-176" transform="translate(7.08661,-155.906)">
				<title>Decision.53</title>
				<desc>Last Month?</desc>
				<path d="M0 2728.35 L49.61 2707.09 L99.21 2728.35 L49.61 2749.61 L0 2728.35 Z" class="st8"/>
				<text x="27.93" y="2730.75" class="st9">Last Month?</text>			</g>
			<g id="shape54-179" transform="translate(106.299,-177.165)">
				<title>Dynamic connector.54</title>
				<desc>No</desc>
				<path d="M0 2749.61 L30.26 2749.61 L30.26 1176.38 L-49.61 1176.38 L-49.61 1191.6" class="st11"/>
				<rect x="24.9238" y="2744.47" width="10.6718" height="9.59985" class="st14"/>
				<text x="24.92" y="2751.67" class="st17">No</text>			</g>
			<g id="shape55-186" transform="translate(7.08661,-70.8661)">
				<title>Decision.55</title>
				<desc>Last Year?</desc>
				<path d="M0 2728.35 L49.61 2707.09 L99.21 2728.35 L49.61 2749.61 L0 2728.35 Z" class="st8"/>
				<text x="32.02" y="2730.75" class="st9">Last Year?</text>			</g>
			<g id="shape56-189" transform="translate(49.6063,-155.906)">
				<title>Dynamic connector.56</title>
				<desc>Yes</desc>
				<path d="M7.09 2749.61 L7.09 2786.09" class="st11"/>
				<rect x="1.08677" y="2766.07" width="11.9998" height="9.59985" class="st14"/>
				<text x="1.09" y="2773.27" class="st17">Yes</text>			</g>
			<g id="shape57-196" transform="translate(106.299,-92.126)">
				<title>Dynamic connector.57</title>
				<desc>No</desc>
				<path d="M0 2749.61 L40.28 2749.61 L40.28 1006.3 L-49.61 1006.3 L-49.61 1021.52" class="st11"/>
				<rect x="32.5331" y="2744.81" width="10.6718" height="9.59985" class="st14"/>
				<text x="32.53" y="2752.01" class="st17">No</text>			</g>
			<g id="shape58-203" transform="translate(7.08661,0)">
				<title>Start/End.58</title>
				<desc>Stop</desc>
				<path d="M14.17 2749.61 L85.04 2749.61 A14.1732 14.1732 -180 0 0 85.04 2721.26 L14.17 2721.26 A14.1732 14.1732 -180
							 1 0 14.17 2749.61 Z" class="st8"/>
				<text x="41.43" y="2737.83" class="st9">Stop</text>			</g>
			<g id="shape59-206" transform="translate(49.6063,-70.8661)">
				<title>Dynamic connector.59</title>
				<path d="M7.09 2749.61 L7.09 2786.09" class="st11"/>
			</g>
			<g id="shape60-211" transform="translate(7.08661,-1431.5)">
				<title>Decision.60</title>
				<desc>Day = Today?</desc>
				<path d="M0 2728.35 L49.61 2707.09 L99.21 2728.35 L49.61 2749.61 L0 2728.35 Z" class="st8"/>
				<text x="25.34" y="2730.75" class="st9">Day = Today?</text>			</g>
			<g id="shape61-214" transform="translate(49.6063,-1516.54)">
				<title>Dynamic connector.61</title>
				<desc>No</desc>
				<path d="M7.09 2749.61 L7.09 2786.09" class="st11"/>
				<rect x="1.75062" y="2766.07" width="10.6718" height="9.59985" class="st14"/>
				<text x="1.75" y="2773.27" class="st17">No</text>			</g>
			<g id="shape62-221" transform="translate(-7.59393E-14,-1452.76)">
				<title>Dynamic connector.62</title>
				<desc>Yes</desc>
				<path d="M7.09 2749.61 L-22.01 2749.61 L-22.01 3940.16 L1.05 3940.16" class="st11"/>
				<rect x="-26.5883" y="2754.67" width="11.9998" height="9.59985" class="st14"/>
				<text x="-26.59" y="2761.87" class="st17">Yes</text>			</g>
			<g id="shape63-228" transform="translate(7.08661,-1261.42)">
				<title>Process.63</title>
				<desc>Parse zdata files</desc>
				<rect x="0" y="2707.09" width="99.2126" height="42.5197" class="st10"/>
				<text x="21.39" y="2730.75" class="st9">Parse zdata files</text>			</g>
			<g id="shape64-231" transform="translate(49.6063,-1431.5)">
				<title>Dynamic connector.64</title>
				<desc>No</desc>
				<path d="M7.09 2749.61 L7.09 2786.09" class="st11"/>
				<rect x="1.75062" y="2766.07" width="10.6718" height="9.59985" class="st14"/>
				<text x="1.75" y="2773.27" class="st17">No</text>			</g>
			<g id="shape65-238" transform="translate(7.08661,-1346.46)">
				<title>Decision.65</title>
				<desc>Day Completely Downloaded?</desc>
				<path d="M0 2728.35 L49.61 2707.09 L99.21 2728.35 L49.61 2749.61 L0 2728.35 Z" class="st8"/>
				<text x="21.71" y="2725.95" class="st9">Day Completely <tspan x="25.36" dy="1.2em" class="st16">Downloaded?</tspan></text>			</g>
			<g id="shape66-242" transform="translate(49.6063,-1346.46)">
				<title>Dynamic connector.66</title>
				<desc>Yes</desc>
				<path d="M7.09 2749.61 L7.09 2786.09" class="st11"/>
				<rect x="1.08677" y="2766.07" width="11.9998" height="9.59985" class="st14"/>
				<text x="1.09" y="2773.27" class="st17">Yes</text>			</g>
			<g id="shape67-249" transform="translate(-7.59393E-14,-1367.72)">
				<title>Dynamic connector.67</title>
				<desc>No</desc>
				<path d="M7.09 2749.61 L-22.01 2749.61 L-22.01 3855.12 L1.05 3855.12" class="st11"/>
				<rect x="-27.6253" y="2761.16" width="10.6718" height="9.59985" class="st14"/>
				<text x="-27.63" y="2768.36" class="st17">No</text>			</g>
			<g id="shape68-256" transform="translate(7.08661,-1176.38)">
				<title>Process.68</title>
				<desc>Extract Client IPs</desc>
				<rect x="0" y="2707.09" width="99.2126" height="42.5197" class="st10"/>
				<text x="20.44" y="2730.75" class="st9">Extract Client IPs</text>			</g>
			<g id="shape69-259" transform="translate(7.08661,-1091.34)">
				<title>Process.69</title>
				<desc>Extract Server IPs</desc>
				<rect x="0" y="2707.09" width="99.2126" height="42.5197" class="st10"/>
				<text x="19.56" y="2730.75" class="st9">Extract Server IPs</text>			</g>
			<g id="shape70-262" transform="translate(7.08661,-1006.3)">
				<title>Process.70</title>
				<desc>Extract Server Ports</desc>
				<rect x="0" y="2707.09" width="99.2126" height="42.5197" class="st10"/>
				<text x="15.54" y="2730.75" class="st9">Extract Server Ports</text>			</g>
			<g id="shape71-265" transform="translate(7.08661,-921.26)">
				<title>Process.71</title>
				<desc>Extract Timestamps</desc>
				<rect x="0" y="2707.09" width="99.2126" height="42.5197" class="st10"/>
				<text x="15.48" y="2730.75" class="st9">Extract Timestamps</text>			</g>
			<g id="shape72-268" transform="translate(7.08661,-751.181)">
				<title>Process.72</title>
				<desc>Extract AMD Version</desc>
				<rect x="0" y="2707.09" width="99.2126" height="42.5197" class="st10"/>
				<text x="13.35" y="2730.75" class="st9">Extract AMD Version</text>			</g>
			<g id="shape73-271" transform="translate(7.08661,-836.221)">
				<title>Process.73</title>
				<desc>Extract Software Services</desc>
				<rect x="0" y="2707.09" width="99.2126" height="42.5197" class="st10"/>
				<text x="5.96" y="2730.75" class="st9">Extract Software Services</text>			</g>
			<g id="shape74-274" transform="translate(49.6063,-1261.42)">
				<title>Dynamic connector.74</title>
				<path d="M7.09 2749.61 L7.09 2786.09" class="st11"/>
			</g>
			<g id="shape75-279" transform="translate(49.6063,-1176.38)">
				<title>Dynamic connector.75</title>
				<path d="M7.09 2749.61 L7.09 2786.09" class="st11"/>
			</g>
			<g id="shape76-284" transform="translate(49.6063,-1091.34)">
				<title>Dynamic connector.76</title>
				<path d="M7.09 2749.61 L7.09 2786.09" class="st11"/>
			</g>
			<g id="shape77-289" transform="translate(49.6063,-1006.3)">
				<title>Dynamic connector.77</title>
				<path d="M7.09 2749.61 L7.09 2786.09" class="st11"/>
			</g>
			<g id="shape78-294" transform="translate(49.6063,-921.26)">
				<title>Dynamic connector.78</title>
				<path d="M7.09 2749.61 L7.09 2786.09" class="st11"/>
			</g>
			<g id="shape79-299" transform="translate(49.6063,-836.221)">
				<title>Dynamic connector.79</title>
				<path d="M7.09 2749.61 L7.09 2786.09" class="st11"/>
			</g>
			<g id="shape80-304" transform="translate(7.08661,-666.142)">
				<title>Process.80</title>
				<desc>Deduplicate and Sort Extracted Index Data</desc>
				<rect x="0" y="2707.09" width="99.2126" height="42.5197" class="st10"/>
				<text x="12.41" y="2725.95" class="st9">Deduplicate and Sort <tspan x="13.28" dy="1.2em" class="st16">Extracted Index Data</tspan></text>			</g>
			<g id="shape81-308" transform="translate(49.6063,-751.181)">
				<title>Dynamic connector.81</title>
				<path d="M7.09 2749.61 L7.09 2786.09" class="st11"/>
			</g>
			<g id="shape84-313" transform="translate(7.08661,-581.102)">
				<title>Data</title>
				<desc>Write Index Data to Archive</desc>
				<path d="M-10.63 2749.61 L88.58 2749.61 L109.84 2707.09 L10.63 2707.09 L-10.63 2749.61 Z" class="st20"/>
				<text x="20.03" y="2725.95" class="st9">Write Index Data <tspan x="31.75" dy="1.2em" class="st16">to Archive</tspan></text>			</g>
			<g id="shape85-317" transform="translate(49.6063,-666.142)">
				<title>Dynamic connector.85</title>
				<path d="M7.09 2749.61 L7.09 2786.09" class="st11"/>
			</g>
			<g id="shape86-322" transform="translate(7.08661,-496.063)">
				<title>Process.86</title>
				<desc>TAR and bzip2 compress all data.</desc>
				<rect x="0" y="2707.09" width="99.2126" height="42.5197" class="st10"/>
				<text x="6.09" y="2725.95" class="st9">TAR and bzip2 compress <tspan x="35.89" dy="1.2em" class="st16">all data.</tspan></text>			</g>
			<g id="shape87-326" transform="translate(49.6063,-581.102)">
				<title>Dynamic connector.87</title>
				<path d="M7.09 2749.61 L7.09 2786.09" class="st11"/>
			</g>
			<g id="shape88-331" transform="translate(7.08661,-411.024)">
				<title>Process.88</title>
				<desc>SHA512 Hash archived/compressed file</desc>
				<rect x="0" y="2707.09" width="99.2126" height="42.5197" class="st10"/>
				<text x="8.14" y="2725.95" class="st9">SHA512 Hash archived/<tspan x="21.92" dy="1.2em" class="st16">compressed file</tspan></text>			</g>
			<g id="shape89-335" transform="translate(49.6063,-496.063)">
				<title>Dynamic connector.89</title>
				<path d="M7.09 2749.61 L7.09 2786.09" class="st11"/>
			</g>
			<g id="shape90-340" transform="translate(7.08661,-325.984)">
				<title>Process.90</title>
				<desc>Delete uncompressed data files</desc>
				<rect x="0" y="2707.09" width="99.2126" height="42.5197" class="st10"/>
				<text x="2.39" y="2725.95" class="st9">Delete uncompressed data <tspan x="42.63" dy="1.2em" class="st16">files</tspan></text>			</g>
			<g id="shape91-344" transform="translate(49.6063,-411.024)">
				<title>Dynamic connector.91</title>
				<path d="M7.09 2749.61 L7.09 2786.09" class="st11"/>
			</g>
			<g id="shape92-349" transform="translate(49.6063,-325.984)">
				<title>Dynamic connector.92</title>
				<path d="M7.09 2749.61 L7.09 2786.09" class="st11"/>
			</g>
		</g>
	</g>
</svg>
