<?xml version="1.0" encoding="UTF-8" standalone="no"?>
<!DOCTYPE svg PUBLIC "-//W3C//DTD SVG 1.1//EN" "http://www.w3.org/Graphics/SVG/1.1/DTD/svg11.dtd">
<!-- Generated by Microsoft Visio, SVG Export queryrumc.svg Page-1 -->
<svg xmlns="http://www.w3.org/2000/svg" xmlns:xlink="http://www.w3.org/1999/xlink" xmlns:ev="http://www.w3.org/2001/xml-events"
		width="11.6929in" height="23.2283in" viewBox="0 0 841.89 1672.44" xml:space="preserve" color-interpolation-filters="sRGB"
		class="st20">
	<style type="text/css">
	<![CDATA[
		.st1 {fill:url(#grad3-4);stroke:none;stroke-linecap:round;stroke-linejoin:round;stroke-width:0.5}
		.st2 {marker-end:url(#mrkr4-10);stroke:#1998d6;stroke-linecap:round;stroke-linejoin:round;stroke-width:0.5}
		.st3 {fill:#1998d6;fill-opacity:1;stroke:#1998d6;stroke-opacity:1;stroke-width:0.16556291390728}
		.st4 {fill:#d80073;stroke:#ffffff;stroke-linecap:round;stroke-linejoin:round;stroke-width:0.5}
		.st5 {fill:#ffffff;font-family:Segoe UI;font-size:0.666664em}
		.st6 {fill:#f09609;stroke:#ffffff;stroke-linecap:round;stroke-linejoin:round;stroke-width:0.5}
		.st7 {font-size:1em}
		.st8 {fill:#1ba1e2;stroke:#ffffff;stroke-linecap:round;stroke-linejoin:round;stroke-width:0.5}
		.st9 {fill:#ffffff;stroke:none;stroke-linecap:butt;stroke-width:7.2}
		.st10 {fill:#1076a7;font-family:Segoe UI;font-size:0.666664em}
		.st11 {fill:#ffffff;stroke:none;stroke-linecap:butt}
		.st12 {stroke:#1998d6;stroke-linecap:round;stroke-linejoin:round;stroke-width:0.5}
		.st13 {fill:#1176a7;font-family:Segoe UI;font-size:0.666664em}
		.st14 {fill:none;stroke:none;stroke-linecap:round;stroke-linejoin:round;stroke-width:0.5}
		.st15 {fill:#1ba1e2;font-family:Segoe UI;font-size:1.00001em;font-weight:bold}
		.st16 {font-size:0.666659em;font-weight:normal}
		.st17 {fill:#1ba1e2;font-family:Segoe UI;font-size:0.833336em;font-weight:bold}
		.st18 {font-size:0.799995em}
		.st19 {font-size:0.799995em;font-weight:normal}
		.st20 {fill:none;fill-rule:evenodd;font-size:12px;overflow:visible;stroke-linecap:square;stroke-miterlimit:3}
	]]>
	</style>

	<defs id="Patterns_And_Gradients">
		<radialGradient id="grad3-4" cx="0.5" cy="0.5" r="0.73">
			<stop offset="0" stop-color="#d2ecf9" stop-opacity="1"/>
			<stop offset="1" stop-color="#e7f5fc" stop-opacity="1"/>
		</radialGradient>
	</defs>
	<defs id="Markers">
		<g id="lend4">
			<path d="M 2 1 L 0 0 L 2 -1 L 2 1 " style="stroke:none"/>
		</g>
		<marker id="mrkr4-10" class="st3" refX="-12.08" orient="auto" markerUnits="strokeWidth" overflow="visible">
			<use xlink:href="#lend4" transform="scale(-6.04,-6.04) "/>
		</marker>
	</defs>
	<g>
		<title>VBackground-1</title>
		<g id="shape2-1">
			<title>Center Gradient</title>
			<rect x="0" y="0" width="841.89" height="1672.44" class="st1"/>
		</g>
	</g>
	<g>
		<title>Page-1</title>
		<g id="shape2-5" transform="translate(453.543,-1583.69)">
			<title>Dynamic connector</title>
			<path d="M7.09 1672.44 L7.09 1712.64" class="st2"/>
		</g>
		<g id="shape4-11" transform="translate(411.024,-1583.69)">
			<title>Start/End</title>
			<desc>Start</desc>
			<path d="M14.17 1672.44 L85.04 1672.44 A14.1732 14.1732 -180 0 0 85.04 1644.09 L14.17 1644.09 A14.1732 14.1732 -180 1
						 0 14.17 1672.44 Z" class="st4"/>
			<text x="41.34" y="1660.67" class="st5">Start</text>		</g>
		<g id="shape5-14" transform="translate(411.024,-1494.93)">
			<title>Data</title>
			<desc>RUM Console Configuration /etc/rumc.cfg</desc>
			<path d="M-10.63 1672.44 L88.58 1672.44 L109.84 1629.92 L10.63 1629.92 L-10.63 1672.44 Z" class="st6"/>
			<text x="25.59" y="1643.98" class="st5">RUM Console  <tspan x="25.33" dy="1.2em" class="st7">Configuration </tspan><tspan
						x="25.92" dy="1.2em" class="st7">/etc/rumc.cfg</tspan></text>		</g>
		<g id="shape10-19" transform="translate(411.024,-176.828)">
			<title>Start/End.8</title>
			<desc>Stop</desc>
			<path d="M14.17 1672.44 L85.04 1672.44 A14.1732 14.1732 -180 0 0 85.04 1644.09 L14.17 1644.09 A14.1732 14.1732 -180 1
						 0 14.17 1672.44 Z" class="st4"/>
			<text x="41.43" y="1660.67" class="st5">Stop</text>		</g>
		<g id="shape11-22" transform="translate(411.024,-1239.81)">
			<title>Process</title>
			<desc>Connect to RUM Console</desc>
			<rect x="0" y="1629.92" width="99.2126" height="42.5197" class="st8"/>
			<text x="5.06" y="1653.58" class="st5">Connect to RUM Console</text>		</g>
		<g id="shape14-25" transform="translate(453.543,-1239.81)">
			<title>Dynamic connector.14</title>
			<path d="M7.09 1672.44 L7.09 1708.92" class="st2"/>
		</g>
		<g id="shape13-30" transform="translate(411.024,-1154.77)">
			<title>Decision</title>
			<desc>Connection &#38; Authentication Valid?</desc>
			<path d="M0 1651.18 L49.61 1629.92 L99.21 1651.18 L49.61 1672.44 L0 1651.18 Z" class="st4"/>
			<text x="25.09" y="1648.78" class="st5">Connection &#38; <tspan x="11.95" dy="1.2em" class="st7">Authentication Valid?</tspan></text>		</g>
		<g id="shape15-34" transform="translate(411.024,-1409.89)">
			<title>Process.15</title>
			<desc>Read RUM Console Connection String</desc>
			<rect x="0" y="1629.92" width="99.2126" height="42.5197" class="st8"/>
			<text x="15.62" y="1648.78" class="st5">Read RUM Console <tspan x="17.83" dy="1.2em" class="st7">Connection String</tspan></text>		</g>
		<g id="shape16-38" transform="translate(453.543,-1494.93)">
			<title>Dynamic connector.16</title>
			<path d="M7.09 1672.44 L7.09 1708.92" class="st2"/>
		</g>
		<g id="shape19-43" transform="translate(453.543,-1154.77)">
			<title>Dynamic connector.19</title>
			<desc>Yes</desc>
			<path d="M7.09 1672.44 L7.09 1708.92" class="st2"/>
			<rect x="1.08677" y="1688.9" width="11.9998" height="9.59985" class="st9"/>
			<text x="1.09" y="1696.1" class="st10">Yes</text>		</g>
		<g id="shape18-50" transform="translate(411.024,-1069.73)">
			<title>Process.18</title>
			<desc>Parse XML Response rumcquery.xslt</desc>
			<rect x="0" y="1629.92" width="99.2126" height="42.5197" class="st8"/>
			<text x="13.2" y="1648.78" class="st5">Parse XML Response <tspan x="23.9" dy="1.2em" class="st7">rumcquery.xslt</tspan></text>		</g>
		<g id="shape20-54" transform="translate(503.15,-1176.03)">
			<title>Dynamic connector.20</title>
			<desc>No</desc>
			<path d="M7.09 1672.44 L28.35 1672.44 L28.35 1417.32 L13.13 1417.32" class="st2"/>
			<rect x="23.0105" y="1540.08" width="10.6718" height="9.59985" class="st9"/>
			<text x="23.01" y="1547.28" class="st10">No</text>		</g>
		<g id="shape22-61" transform="translate(467.717,-1409.89)">
			<title>Dynamic connector.22</title>
			<path d="M-7.09 1672.44 L-7.09 1708.92" class="st2"/>
		</g>
		<g id="shape21-66" transform="translate(411.024,-1324.85)">
			<title>Decision.21</title>
			<desc>End of rumc.cfg File?</desc>
			<path d="M0 1651.18 L49.61 1629.92 L99.21 1651.18 L49.61 1672.44 L0 1651.18 Z" class="st4"/>
			<text x="13.04" y="1653.58" class="st5">End of rumc.cfg File?</text>		</g>
		<g id="shape23-69" transform="translate(467.717,-1324.85)">
			<title>Dynamic connector.23</title>
			<desc>No</desc>
			<path d="M-7.09 1672.44 L-7.09 1708.92" class="st2"/>
			<rect x="-12.4226" y="1688.9" width="10.6718" height="9.59985" class="st9"/>
			<text x="-12.42" y="1696.1" class="st10">No</text>		</g>
		<g id="shape24-76" transform="translate(411.024,-1346.11)">
			<title>Dynamic connector.24</title>
			<desc>Yes</desc>
			<path d="M0 1672.44 L-21.3 1672.44 A3 3 -180 0 0 -27.3 1672.44 L-113.39 1672.44 L-113.39 2508.31 L49.61 2508.31 L49.61
						 2530.62" class="st2"/>
			<rect x="-119.386" y="2124.55" width="11.9998" height="9.59985" class="st11"/>
			<text x="-119.39" y="2131.75" class="st10">Yes</text>		</g>
		<g id="shape25-83" transform="translate(411.024,-984.691)">
			<title>Data.25</title>
			<desc>List of AMD Connection Strings</desc>
			<path d="M-10.63 1672.44 L88.58 1672.44 L109.84 1629.92 L10.63 1629.92 L-10.63 1672.44 Z" class="st6"/>
			<text x="28.94" y="1643.98" class="st5">List of AMD <tspan x="29.39" dy="1.2em" class="st7">Connection </tspan><tspan
						x="37.45" dy="1.2em" class="st7">Strings</tspan></text>		</g>
		<g id="shape26-88" transform="translate(453.543,-1069.73)">
			<title>Dynamic connector.26</title>
			<path d="M7.09 1672.44 L7.09 1708.92" class="st2"/>
		</g>
		<g id="shape28-93" transform="translate(453.543,-984.691)">
			<title>Dynamic connector.28</title>
			<path d="M7.09 1672.44 L7.09 1708.92" class="st2"/>
		</g>
		<g id="shape27-98" transform="translate(411.024,-899.651)">
			<title>Process.27</title>
			<desc>Read AMD Connection String</desc>
			<rect x="0" y="1629.92" width="99.2126" height="42.5197" class="st8"/>
			<text x="9.34" y="1648.78" class="st5">Read AMD Connection <tspan x="39.15" dy="1.2em" class="st7">String</tspan></text>		</g>
		<g id="shape30-102" transform="translate(453.543,-899.651)">
			<title>Dynamic connector.30</title>
			<path d="M7.09 1672.44 L7.09 1708.92" class="st2"/>
		</g>
		<g id="shape29-107" transform="translate(411.024,-814.612)">
			<title>Decision.29</title>
			<desc>End of AMD List?</desc>
			<path d="M0 1651.18 L49.61 1629.92 L99.21 1651.18 L49.61 1672.44 L0 1651.18 Z" class="st4"/>
			<text x="19.41" y="1653.58" class="st5">End of AMD List?</text>		</g>
		<g id="shape32-110" transform="translate(453.543,-814.612)">
			<title>Dynamic connector.32</title>
			<desc>No</desc>
			<path d="M7.09 1672.44 L7.09 1708.92" class="st2"/>
			<rect x="1.75062" y="1688.9" width="10.6718" height="9.59985" class="st9"/>
			<text x="1.75" y="1696.1" class="st10">No</text>		</g>
		<g id="shape31-117" transform="translate(411.024,-729.573)">
			<title>Process.31</title>
			<desc>Test connection to AMD</desc>
			<rect x="0" y="1629.92" width="99.2126" height="42.5197" class="st8"/>
			<text x="6.81" y="1653.58" class="st5">Test connection to AMD</text>		</g>
		<g id="shape34-120" transform="translate(453.543,-729.573)">
			<title>Dynamic connector.34</title>
			<path d="M7.09 1672.44 L7.09 1708.92" class="st2"/>
		</g>
		<g id="shape33-125" transform="translate(411.024,-644.533)">
			<title>Decision.33</title>
			<desc>Active and Valid AMD</desc>
			<path d="M0 1651.18 L49.61 1629.92 L99.21 1651.18 L49.61 1672.44 L0 1651.18 Z" class="st4"/>
			<text x="11.12" y="1653.58" class="st5">Active and Valid AMD</text>		</g>
		<g id="shape36-128" transform="translate(403.937,-835.872)">
			<title>Dynamic connector.36</title>
			<desc>Yes</desc>
			<path d="M7.09 1672.44 L-17.21 1672.44 L-17.21 1077.17 L1.05 1077.17" class="st2"/>
			<rect x="-23.2102" y="1370" width="11.9998" height="9.59985" class="st11"/>
			<text x="-23.21" y="1377.2" class="st10">Yes</text>		</g>
		<g id="shape45-135" transform="translate(460.63,-644.533)">
			<title>Dynamic connector.45</title>
			<desc>Yes</desc>
			<path d="M0 1672.44 L0 1693.7 L-77.95 1693.7 L-77.95 1708.92" class="st2"/>
			<rect x="-44.9762" y="1688.9" width="11.9998" height="9.59985" class="st9"/>
			<text x="-44.98" y="1696.1" class="st10">Yes</text>		</g>
		<g id="shape44-142" transform="translate(333.071,-559.494)">
			<title>Data.44</title>
			<desc>Add to Active AMD list</desc>
			<path d="M-10.63 1672.44 L88.58 1672.44 L109.84 1629.92 L10.63 1629.92 L-10.63 1672.44 Z" class="st6"/>
			<text x="37.52" y="1648.78" class="st5">Add to <tspan x="22.69" dy="1.2em" class="st7">Active AMD list</tspan></text>		</g>
		<g id="shape48-146" transform="translate(474.803,-559.494)">
			<title>Data.48</title>
			<desc>Add to Disabled AMD list</desc>
			<path d="M-10.63 1672.44 L88.58 1672.44 L109.84 1629.92 L10.63 1629.92 L-10.63 1672.44 Z" class="st6"/>
			<text x="37.52" y="1643.98" class="st5">Add to <tspan x="24.26" dy="1.2em" class="st7">Disabled AMD </tspan><tspan
						x="44.62" dy="1.2em" class="st7">list</tspan></text>		</g>
		<g id="shape49-151" transform="translate(460.63,-644.533)">
			<title>Dynamic connector.49</title>
			<desc>No</desc>
			<path d="M0 1672.44 L0 1693.7 L63.78 1693.7 L63.78 1708.92" class="st2"/>
			<rect x="26.5537" y="1688.9" width="10.6718" height="9.59985" class="st9"/>
			<text x="26.55" y="1696.1" class="st10">No</text>		</g>
		<g id="shape50-158" transform="translate(574.016,-580.754)">
			<title>Dynamic connector.50</title>
			<path d="M0 1672.44 L21.26 1672.44 L21.26 1332.28 L-57.74 1332.28" class="st2"/>
		</g>
		<g id="shape51-163" transform="translate(432.283,-580.754)">
			<title>Dynamic connector.51</title>
			<path d="M0 1672.44 L12.26 1672.44 L12.26 1714.61 L162.99 1714.61 L162.99 1332.28 L83.99 1332.28" class="st2"/>
		</g>
		<g id="shape52-168" transform="translate(411.024,-439.37)">
			<title>Decision.52</title>
			<desc>Update AMD list?</desc>
			<path d="M0 1651.18 L49.61 1629.92 L99.21 1651.18 L49.61 1672.44 L0 1651.18 Z" class="st4"/>
			<text x="18.72" y="1653.58" class="st5">Update AMD list?</text>		</g>
		<g id="shape54-171" transform="translate(411.024,-460.63)">
			<title>Dynamic connector.54</title>
			<desc>Yes</desc>
			<path d="M0 1672.44 L-35.43 1672.44 L-35.43 1730.18" class="st2"/>
			<rect x="-41.433" y="1681.81" width="11.9998" height="9.59985" class="st9"/>
			<text x="-41.43" y="1689.01" class="st10">Yes</text>		</g>
		<g id="shape53-178" transform="translate(325.984,-354.331)">
			<title>Data.53</title>
			<desc>Update /etc/amdlist.cfg</desc>
			<path d="M-10.63 1672.44 L88.58 1672.44 L109.84 1629.92 L10.63 1629.92 L-10.63 1672.44 Z" class="st6"/>
			<text x="36.67" y="1648.78" class="st5">Update <tspan x="22.05" dy="1.2em" class="st7">/etc/amdlist.cfg</tspan></text>		</g>
		<g id="shape55-182" transform="translate(411.024,-247.694)">
			<title>Process.55</title>
			<desc>Display Active and Disabled AMD lists</desc>
			<rect x="0" y="1629.92" width="99.2126" height="42.5197" class="st8"/>
			<text x="17.24" y="1648.78" class="st5">Display Active and <tspan x="16.48" dy="1.2em" class="st7">Disabled AMD lists</tspan></text>		</g>
		<g id="shape57-186" transform="translate(467.717,-439.37)">
			<title>Dynamic connector.57</title>
			<desc>No (Default)</desc>
			<path d="M-7.09 1672.44 L-7.09 1815.56" class="st2"/>
			<rect x="-28.7033" y="1742.22" width="43.2337" height="9.59985" class="st9"/>
			<text x="-28.7" y="1749.42" class="st10">No (Default)</text>		</g>
		<g id="shape58-193" transform="translate(375.591,-354.331)">
			<title>Dynamic connector.58</title>
			<path d="M0 1672.44 L0 1693.7 L85.04 1693.7 L85.04 1730.52" class="st2"/>
		</g>
		<g id="shape59-198" transform="translate(-1000.63,1194.7) rotate(-90)">
			<title>Side line callout</title>
			<desc>Command line option: -u</desc>
			<path d="M-17.11 1510.87 L13.6 1575.66" class="st12"/>
			<path d="M0 1575.66 L27.2 1575.66" class="st12"/>
			<rect x="1579.66" y="-23.2015" width="78.6871" height="19.1997" transform="rotate(90)" class="st9"/>
			<text x="1579.66" y="-16" transform="rotate(90)" class="st13">Command line option:<tspan x="1579.66" dy="1.2em"
						class="st7">-</tspan>u</text>		</g>
		<g id="shape60-205" transform="translate(-1466.59,1253.42) rotate(-90)">
			<title>Side line callout.60</title>
			<desc>Command line option: -a amdlistpath</desc>
			<path d="M-43.43 1792.58 L13.6 1672.44" class="st12"/>
			<path d="M0 1672.44 L27.2 1672.44" class="st12"/>
			<rect x="1589.75" y="-23.2015" width="78.6871" height="19.1997" transform="rotate(90)" class="st9"/>
			<text x="1589.75" y="-16" transform="rotate(90)" class="st13">Command line option: <tspan x="1617.32" dy="1.2em"
						class="st7">-</tspan>a amdlistpath</text>		</g>
		<g id="shape61-212" transform="translate(-1000.63,112.814) rotate(-90)">
			<title>Side line callout.61</title>
			<desc>Command line option: -c rumcpath</desc>
			<path d="M-43.44 1510.87 L13.6 1576.33" class="st12"/>
			<path d="M0 1576.33 L27.2 1576.33" class="st12"/>
			<rect x="1580.33" y="-23.2015" width="78.6871" height="19.1997" transform="rotate(90)" class="st9"/>
			<text x="1580.33" y="-16" transform="rotate(90)" class="st13">Command line option: <tspan x="1580.33" dy="1.2em"
						class="st7">-</tspan>c rumcpath</text>		</g>
		<g id="shape62-219" transform="translate(453.543,-247.694)">
			<title>Dynamic connector.62</title>
			<path d="M7.09 1672.44 L7.09 1708.92" class="st2"/>
		</g>
		<g id="shape63-224" transform="translate(28.3465,-1612.03)">
			<title>Sheet.63</title>
			<desc>RUM Console AMD List Updater queryrumc.sh</desc>
			<rect x="0" y="1640.38" width="253.825" height="32.0612" class="st14"/>
			<text x="2" y="1653.18" class="st15">RUM Console AMD List Updater <tspan x="2" dy="1.35em" class="st16">queryrumc.sh</tspan></text>		</g>
		<g id="shape65-228" transform="translate(28.3465,-1299.69)">
			<title>Sheet.65</title>
			<desc>Dependencies Configuration /etc/rumc.cfg (list of RUM console...</desc>
			<rect x="0" y="1376.44" width="198.425" height="296.002" class="st14"/>
			<text x="2" y="1387.44" class="st17">Dependencies  <tspan x="2" dy="2.475em" class="st18">Configuration</tspan><tspan
						x="2" dy="1.2em" class="st19">/etc/rumc.cfg (list of RUM console server to query)</tspan><tspan x="2"
						dy="2.4em" class="st18">Software</tspan><tspan x="2" dy="1.2em" class="st19">bash (shell script processor) </tspan><tspan
						x="2" dy="1.2em" class="st19">xsltproc (XML Stlyesheet processor) </tspan><tspan x="2" dy="2.4em"
						class="st18">Data</tspan><tspan x="2" dy="1.2em" class="st19">rumcquery.xslt (XML Stylesheet)  </tspan><tspan
						x="2" dy="2.4em" class="st18">Output </tspan><tspan x="2" dy="1.2em" class="st19">/etc/amdlist.cfg (List of AMDs to archive)</tspan></text>		</g>
	</g>
</svg>
