<?xml version="1.0" encoding="UTF-8" standalone="no"?>
<!DOCTYPE svg PUBLIC "-//W3C//DTD SVG 1.1//EN" "http://www.w3.org/Graphics/SVG/1.1/DTD/svg11.dtd">
<!-- Generated by Microsoft Visio, SVG Export rtmarchive.svg Page-1 -->
<svg xmlns="http://www.w3.org/2000/svg" xmlns:xlink="http://www.w3.org/1999/xlink" xmlns:ev="http://www.w3.org/2001/xml-events"
		width="11.6929in" height="15.748in" viewBox="0 0 841.89 1133.86" xml:space="preserve" color-interpolation-filters="sRGB"
		class="st22">
	<style type="text/css">
	<![CDATA[
		.st1 {fill:url(#grad3-4);stroke:none;stroke-linecap:round;stroke-linejoin:round;stroke-width:0.5}
		.st2 {marker-end:url(#mrkr4-10);stroke:#1998d6;stroke-linecap:round;stroke-linejoin:round;stroke-width:0.5}
		.st3 {fill:#1998d6;fill-opacity:1;stroke:#1998d6;stroke-opacity:1;stroke-width:0.16556291390728}
		.st4 {fill:#d80073;stroke:#ffffff;stroke-linecap:round;stroke-linejoin:round;stroke-width:0.5}
		.st5 {fill:#ffffff;font-family:Segoe UI;font-size:0.666664em}
		.st6 {fill:#f09609;stroke:#ffffff;stroke-linecap:round;stroke-linejoin:round;stroke-width:0.5}
		.st7 {font-size:1em}
		.st8 {fill:#1ba1e2;stroke:#ffffff;stroke-linecap:round;stroke-linejoin:round;stroke-width:0.5}
		.st9 {fill:#ffffff;stroke:none;stroke-linecap:butt;stroke-width:7.2}
		.st10 {fill:#1076a7;font-family:Segoe UI;font-size:0.666664em}
		.st11 {stroke:#1998d6;stroke-linecap:round;stroke-linejoin:round;stroke-width:0.5}
		.st12 {fill:#1176a7;font-family:Segoe UI;font-size:0.666664em}
		.st13 {fill:none;stroke:none;stroke-linecap:round;stroke-linejoin:round;stroke-width:0.5}
		.st14 {fill:#1ba1e2;font-family:Segoe UI;font-size:1.00001em;font-weight:bold}
		.st15 {font-size:0.666659em;font-weight:normal}
		.st16 {fill:#1ba1e2;font-family:Segoe UI;font-size:0.833336em;font-weight:bold}
		.st17 {font-size:0.799995em}
		.st18 {font-size:0.799995em;font-weight:normal}
		.st19 {fill:#339933}
		.st20 {stroke:#ffffff;stroke-linecap:round;stroke-linejoin:round;stroke-width:0.5}
		.st21 {fill:#ffffff;stroke:none;stroke-linecap:butt}
		.st22 {fill:none;fill-rule:evenodd;font-size:12px;overflow:visible;stroke-linecap:square;stroke-miterlimit:3}
	]]>
	</style>

	<defs id="Patterns_And_Gradients">
		<radialGradient id="grad3-4" cx="0.5" cy="0.5" r="0.73">
			<stop offset="0" stop-color="#d2ecf9" stop-opacity="1"/>
			<stop offset="1" stop-color="#e7f5fc" stop-opacity="1"/>
		</radialGradient>
	</defs>
	<defs id="Markers">
		<g id="lend4">
			<path d="M 2 1 L 0 0 L 2 -1 L 2 1 " style="stroke:none"/>
		</g>
		<marker id="mrkr4-10" class="st3" refX="-12.08" orient="auto" markerUnits="strokeWidth" overflow="visible">
			<use xlink:href="#lend4" transform="scale(-6.04,-6.04) "/>
		</marker>
	</defs>
	<g>
		<title>VBackground-1</title>
		<g id="shape2-1">
			<title>Center Gradient</title>
			<rect x="0" y="0" width="841.89" height="1133.86" class="st1"/>
		</g>
	</g>
	<g>
		<title>Page-1</title>
		<g id="shape2-5" transform="translate(453.543,-1045.1)">
			<title>Dynamic connector</title>
			<path d="M7.09 1133.86 L7.09 1174.06" class="st2"/>
		</g>
		<g id="shape4-11" transform="translate(411.024,-1045.1)">
			<title>Start/End</title>
			<desc>Start</desc>
			<path d="M14.17 1133.86 L85.04 1133.86 A14.1732 14.1732 -180 0 0 85.04 1105.51 L14.17 1105.51 A14.1732 14.1732 -180 1
						 0 14.17 1133.86 Z" class="st4"/>
			<text x="41.34" y="1122.08" class="st5">Start</text>		</g>
		<g id="shape5-14" transform="translate(411.024,-956.344)">
			<title>Data</title>
			<desc>AMD List /etc/amdlist.cfg</desc>
			<path d="M-10.63 1133.86 L88.58 1133.86 L109.84 1091.34 L10.63 1091.34 L-10.63 1133.86 Z" class="st6"/>
			<text x="33.63" y="1110.2" class="st5">AMD List <tspan x="22.05" dy="1.2em" class="st7">/etc/amdlist.cfg</tspan></text>		</g>
		<g id="shape10-18" transform="translate(411.024,-375.242)">
			<title>Start/End.8</title>
			<desc>Stop</desc>
			<path d="M14.17 1133.86 L85.04 1133.86 A14.1732 14.1732 -180 0 0 85.04 1105.51 L14.17 1105.51 A14.1732 14.1732 -180 1
						 0 14.17 1133.86 Z" class="st4"/>
			<text x="41.43" y="1122.08" class="st5">Stop</text>		</g>
		<g id="shape11-21" transform="translate(411.024,-786.266)">
			<title>Process</title>
			<desc>Check Running Subprocesses</desc>
			<rect x="0" y="1091.34" width="99.2126" height="42.5197" class="st8"/>
			<text x="23.07" y="1110.2" class="st5">Check Running <tspan x="25.66" dy="1.2em" class="st7">Subprocesses</tspan></text>		</g>
		<g id="shape14-25" transform="translate(453.543,-786.266)">
			<title>Dynamic connector.14</title>
			<path d="M7.09 1133.86 L7.09 1170.34" class="st2"/>
		</g>
		<g id="shape13-30" transform="translate(411.024,-701.226)">
			<title>Decision</title>
			<desc>Subprocesses &#60; limit</desc>
			<path d="M0 1112.6 L49.61 1091.34 L99.21 1112.6 L49.61 1133.86 L0 1112.6 Z" class="st4"/>
			<text x="13.02" y="1115" class="st5">Subprocesses &#60; limit</text>		</g>
		<g id="shape15-33" transform="translate(411.024,-871.305)">
			<title>Process.15</title>
			<desc>Read AMD Connection String</desc>
			<rect x="0" y="1091.34" width="99.2126" height="42.5197" class="st8"/>
			<text x="9.34" y="1110.2" class="st5">Read AMD Connection <tspan x="39.15" dy="1.2em" class="st7">String</tspan></text>		</g>
		<g id="shape16-37" transform="translate(453.543,-956.344)">
			<title>Dynamic connector.16</title>
			<path d="M7.09 1133.86 L7.09 1170.34" class="st2"/>
		</g>
		<g id="shape19-42" transform="translate(467.716,-701.226)">
			<title>Dynamic connector.19</title>
			<desc>Yes</desc>
			<path d="M-7.09 1133.86 L-7.09 1170.34" class="st2"/>
			<rect x="-13.0865" y="1150.32" width="11.9998" height="9.59985" class="st9"/>
			<text x="-13.09" y="1157.52" class="st10">Yes</text>		</g>
		<g id="shape20-49" transform="translate(510.236,-722.486)">
			<title>Dynamic connector.20</title>
			<desc>No</desc>
			<path d="M0 1133.86 L21.26 1133.86 L21.26 1091.34 L-49.61 1091.34 L-49.61 1106.56" class="st2"/>
			<rect x="1.75062" y="1086.54" width="10.6718" height="9.59985" class="st9"/>
			<text x="1.75" y="1093.74" class="st10">No</text>		</g>
		<g id="shape23-56" transform="translate(467.717,-871.305)">
			<title>Dynamic connector.23</title>
			<desc>No</desc>
			<path d="M-7.09 1133.86 L-7.09 1170.34" class="st2"/>
			<rect x="-12.4226" y="1150.32" width="10.6718" height="9.59985" class="st9"/>
			<text x="-12.42" y="1157.52" class="st10">No</text>		</g>
		<g id="shape29-63" transform="translate(411.024,-531.147)">
			<title>Decision.29</title>
			<desc>End of AMD List?</desc>
			<path d="M0 1112.6 L49.61 1091.34 L99.21 1112.6 L49.61 1133.86 L0 1112.6 Z" class="st4"/>
			<text x="19.41" y="1115" class="st5">End of AMD List?</text>		</g>
		<g id="shape32-66" transform="translate(467.716,-531.147)">
			<title>Dynamic connector.32</title>
			<desc>Yes</desc>
			<path d="M-7.09 1133.86 L-7.09 1170.34" class="st2"/>
			<rect x="-13.0865" y="1150.32" width="11.9998" height="9.59985" class="st9"/>
			<text x="-13.09" y="1157.52" class="st10">Yes</text>		</g>
		<g id="shape36-73" transform="translate(403.937,-552.407)">
			<title>Dynamic connector.36</title>
			<desc>No</desc>
			<path d="M7.09 1133.86 L-17.21 1133.86 L-17.21 793.7 L1.05 793.7" class="st2"/>
			<rect x="-22.5463" y="958.98" width="10.6718" height="9.59985" class="st9"/>
			<text x="-22.55" y="966.18" class="st10">No</text>		</g>
		<g id="shape61-80" transform="translate(-462.047,112.814) rotate(-90)">
			<title>Side line callout.61</title>
			<desc>Command line option: -a amdlistpath</desc>
			<path d="M-43.44 972.28 L13.6 1037.75" class="st11"/>
			<path d="M0 1037.75 L27.2 1037.75" class="st11"/>
			<rect x="1041.75" y="-23.2015" width="78.6871" height="19.1997" transform="rotate(90)" class="st9"/>
			<text x="1041.75" y="-16" transform="rotate(90)" class="st12">Command line option: <tspan x="1041.75" dy="1.2em"
						class="st7">-</tspan>a amdlistpath</text>		</g>
		<g id="shape63-87" transform="translate(28.3465,-1073.45)">
			<title>Sheet.63</title>
			<desc>Archive Server, Primary Archiving Script rtmarchive.sh</desc>
			<rect x="0" y="1101.8" width="253.825" height="32.0612" class="st13"/>
			<text x="2" y="1114.6" class="st14">Archive Server, Primary Archiving Script <tspan x="2" dy="1.35em" class="st15">rtmarchive.sh</tspan></text>		</g>
		<g id="shape65-91" transform="translate(28.3465,-761.102)">
			<title>Sheet.65</title>
			<desc>Dependencies Configuration /etc/amdlist.cfg (list of AMDs to ...</desc>
			<rect x="0" y="837.856" width="221.102" height="296.002" class="st13"/>
			<text x="2" y="848.86" class="st16">Dependencies  <tspan x="2" dy="2.475em" class="st17">Configuration</tspan><tspan
						x="2" dy="1.2em" class="st18">/etc/amdlist.cfg (list of AMDs to archive)</tspan><tspan x="2" dy="2.4em"
						class="st17">Software</tspan><tspan x="2" dy="1.2em" class="st18">bash (shell script processor) </tspan><tspan
						x="2" dy="1.2em" class="st18">archiveamd.sh (sub</tspan><tspan class="st18">-</tspan><tspan class="st18">script)  </tspan><tspan
						x="2" dy="2.4em" class="st17">Data</tspan><tspan x="2" dy="1.2em" class="st18">/var/spool/rtmarchive (primary archive storage location)</tspan></text>		</g>
		<g id="shape67-103" transform="translate(411.024,-616.187)">
			<title>Subprocess</title>
			<desc>Spawn archiveamd.sh</desc>
			<path d="M0 1133.86 L99.21 1133.86 L99.21 1091.34 L0 1091.34 L0 1133.86 Z" class="st19"/>
			<path d="M0 1133.86 L99.21 1133.86 L99.21 1091.34 L0 1091.34 L0 1133.86" class="st20"/>
			<path d="M8.5 1133.86 L8.5 1091.34" class="st20"/>
			<path d="M90.71 1133.86 L90.71 1091.34" class="st20"/>
			<text x="11.67" y="1115" class="st5">Spawn archiveamd.sh</text>		</g>
		<g id="shape68-109" transform="translate(453.543,-616.187)">
			<title>Dynamic connector.68</title>
			<path d="M7.09 1133.86 L7.09 1170.34" class="st2"/>
		</g>
		<g id="shape69-114" transform="translate(-435.388,490.918) rotate(-90)">
			<title>Side line callout.69</title>
			<desc>Passed parameters: AMD name AMD connection string Archive dat...</desc>
			<path d="M-5.49 945.62 L23.2 998.07" class="st11"/>
			<path d="M0 998.07 L46.4 998.07" class="st11"/>
			<rect x="1002.07" y="-42.4014" width="81.5773" height="38.3997" transform="rotate(90)" class="st21"/>
			<text x="1002.07" y="-35.2" transform="rotate(90)" class="st12">Passed parameters: <tspan x="1002.07" dy="1.2em"
						class="st7">AMD name </tspan><tspan x="1002.07" dy="1.2em" class="st7">AMD connection string </tspan><tspan
						x="1002.07" dy="1.2em" class="st7">Archive data directory</tspan></text>		</g>
		<g id="shape70-123" transform="translate(411.024,-446.108)">
			<title>Process.70</title>
			<desc>Wait for last subprocesses to finish</desc>
			<rect x="0" y="1091.34" width="99.2126" height="42.5197" class="st8"/>
			<text x="3.66" y="1110.2" class="st5">Wait for last subprocesses <tspan x="35.4" dy="1.2em" class="st7">to finish</tspan></text>		</g>
		<g id="shape72-127" transform="translate(453.543,-446.108)">
			<title>Dynamic connector.72</title>
			<path d="M7.09 1133.86 L7.09 1170.34" class="st2"/>
		</g>
		<g id="shape73-132" transform="translate(-435.388,400.531) rotate(-90)">
			<title>Side line callout.73</title>
			<desc>Subprocesses limited to four times CPU core count.</desc>
			<path d="M-10.84 945.62 L13.6 998.07" class="st11"/>
			<path d="M0 998.07 L27.2 998.07" class="st11"/>
			<rect x="1002.07" y="-23.2015" width="121.988" height="19.1997" transform="rotate(90)" class="st9"/>
			<text x="1002.07" y="-16" transform="rotate(90)" class="st12">Subprocesses limited to four times <tspan x="1002.07"
						dy="1.2em" class="st7">CPU core count.</tspan></text>		</g>
	</g>
</svg>
