<?xml version="1.0" encoding="UTF-8" standalone="no"?>
<!DOCTYPE svg PUBLIC "-//W3C//DTD SVG 1.1//EN" "http://www.w3.org/Graphics/SVG/1.1/DTD/svg11.dtd">
<!-- Generated by Microsoft Visio, SVG Export scheduling.svg Page-1 -->
<svg xmlns="http://www.w3.org/2000/svg" xmlns:xlink="http://www.w3.org/1999/xlink" xmlns:ev="http://www.w3.org/2001/xml-events"
		width="11.6929in" height="8.26772in" viewBox="0 0 841.89 595.276" xml:space="preserve" color-interpolation-filters="sRGB"
		class="st18">
	<style type="text/css">
	<![CDATA[
		.st1 {fill:url(#grad3-4);stroke:none;stroke-linecap:round;stroke-linejoin:round;stroke-width:0.5}
		.st2 {fill:#d80073;stroke:#ffffff;stroke-linecap:round;stroke-linejoin:round;stroke-width:0.5}
		.st3 {fill:#ffffff;font-family:Segoe UI;font-size:0.666664em}
		.st4 {marker-end:url(#mrkr4-16);stroke:#1998d6;stroke-linecap:round;stroke-linejoin:round;stroke-width:0.5}
		.st5 {fill:#1998d6;fill-opacity:1;stroke:#1998d6;stroke-opacity:1;stroke-width:0.16556291390728}
		.st6 {fill:#ffffff;stroke:none;stroke-linecap:butt}
		.st7 {fill:#1076a7;font-family:Segoe UI;font-size:0.666664em}
		.st8 {fill:none;stroke:none;stroke-linecap:round;stroke-linejoin:round;stroke-width:0.5}
		.st9 {fill:#1ba1e2;font-family:Segoe UI;font-size:1.00001em;font-weight:bold}
		.st10 {font-size:0.666659em;font-weight:normal}
		.st11 {fill:#1ba1e2;font-family:Segoe UI;font-size:0.833336em;font-weight:bold}
		.st12 {font-size:0.799995em}
		.st13 {font-size:0.799995em;font-weight:normal}
		.st14 {fill:#339933}
		.st15 {stroke:#ffffff;stroke-linecap:round;stroke-linejoin:round;stroke-width:0.5}
		.st16 {font-size:1em}
		.st17 {fill:#ffffff;stroke:none;stroke-linecap:butt;stroke-width:7.2}
		.st18 {fill:none;fill-rule:evenodd;font-size:12px;overflow:visible;stroke-linecap:square;stroke-miterlimit:3}
	]]>
	</style>

	<defs id="Patterns_And_Gradients">
		<radialGradient id="grad3-4" cx="0.5" cy="0.5" r="0.73">
			<stop offset="0" stop-color="#d2ecf9" stop-opacity="1"/>
			<stop offset="1" stop-color="#e7f5fc" stop-opacity="1"/>
		</radialGradient>
	</defs>
	<defs id="Markers">
		<g id="lend4">
			<path d="M 2 1 L 0 0 L 2 -1 L 2 1 " style="stroke:none"/>
		</g>
		<marker id="mrkr4-16" class="st5" refX="-12.08" orient="auto" markerUnits="strokeWidth" overflow="visible">
			<use xlink:href="#lend4" transform="scale(-6.04,-6.04) "/>
		</marker>
	</defs>
	<g>
		<title>VBackground-1</title>
		<g id="shape2-1">
			<title>Center Gradient</title>
			<rect x="0" y="0" width="841.89" height="595.276" class="st1"/>
		</g>
	</g>
	<g>
		<title>Page-1</title>
		<g id="shape4-5" transform="translate(411.024,-506.521)">
			<title>Start/End</title>
			<desc>Start</desc>
			<path d="M14.17 595.28 L85.04 595.28 A14.1732 14.1732 -180 0 0 85.04 566.93 L14.17 566.93 A14.1732 14.1732 -180 1 0 14.17
						 595.28 Z" class="st2"/>
			<text x="41.34" y="583.5" class="st3">Start</text>		</g>
		<g id="shape13-8" transform="translate(411.024,-421.482)">
			<title>Decision</title>
			<desc>Check Current Time</desc>
			<path d="M0 574.02 L49.61 552.76 L99.21 574.02 L49.61 595.28 L0 574.02 Z" class="st2"/>
			<text x="14.91" y="576.42" class="st3">Check Current Time</text>		</g>
		<g id="shape19-11" transform="translate(467.716,-421.482)">
			<title>Dynamic connector.19</title>
			<desc>5-minutes past the hour hourly</desc>
			<path d="M-7.09 595.28 L-7.09 631.76" class="st4"/>
			<rect x="-63.3058" y="615.108" width="109.604" height="9.59985" class="st6"/>
			<text x="-63.31" y="622.31" class="st7">5-minutes past the hour hourly</text>		</g>
		<g id="shape23-19" transform="translate(467.717,-506.521)">
			<title>Dynamic connector.23</title>
			<path d="M-7.09 595.28 L-7.09 631.76" class="st4"/>
		</g>
		<g id="shape63-24" transform="translate(28.3465,-534.868)">
			<title>Sheet.63</title>
			<desc>Archive Server, Scheduling crontab</desc>
			<rect x="0" y="563.214" width="253.825" height="32.0612" class="st8"/>
			<text x="2" y="576.01" class="st9">Archive Server, Scheduling <tspan x="2" dy="1.35em" class="st10">crontab</tspan></text>		</g>
		<g id="shape65-28" transform="translate(28.3465,-222.52)">
			<title>Sheet.65</title>
			<desc>Dependencies Configuration rtmarchive users crontab</desc>
			<rect x="0" y="299.274" width="221.102" height="296.002" class="st8"/>
			<text x="2" y="310.27" class="st11">Dependencies  <tspan x="2" dy="2.475em" class="st12">Configuration</tspan><tspan
						x="2" dy="1.2em" class="st13">rtmarchive users crontab</tspan></text>		</g>
		<g id="shape67-33" transform="translate(411.024,-336.443)">
			<title>Subprocess</title>
			<desc>Spawn rtmarchive.sh</desc>
			<path d="M0 595.28 L99.21 595.28 L99.21 552.76 L0 552.76 L0 595.28 Z" class="st14"/>
			<path d="M0 595.28 L99.21 595.28 L99.21 552.76 L0 552.76 L0 595.28" class="st15"/>
			<path d="M8.5 595.28 L8.5 552.76" class="st15"/>
			<path d="M90.71 595.28 L90.71 552.76" class="st15"/>
			<text x="37.94" y="571.62" class="st3">Spawn <tspan x="26.07" dy="1.2em" class="st16">rtmarchive.sh</tspan></text>		</g>
		<g id="shape68-40" transform="translate(552.756,-336.443)">
			<title>Subprocess.68</title>
			<desc>Spawn archivemgmt.sh</desc>
			<path d="M0 595.28 L99.21 595.28 L99.21 552.76 L0 552.76 L0 595.28 Z" class="st14"/>
			<path d="M0 595.28 L99.21 595.28 L99.21 552.76 L0 552.76 L0 595.28" class="st15"/>
			<path d="M8.5 595.28 L8.5 552.76" class="st15"/>
			<path d="M90.71 595.28 L90.71 552.76" class="st15"/>
			<text x="37.94" y="571.62" class="st3">Spawn  <tspan x="21.66" dy="1.2em" class="st16">archivemgmt.sh</tspan></text>		</g>
		<g id="shape69-47" transform="translate(269.291,-336.443)">
			<title>Subprocess.69</title>
			<desc>Spawn spaceman.sh</desc>
			<path d="M0 595.28 L99.21 595.28 L99.21 552.76 L0 552.76 L0 595.28 Z" class="st14"/>
			<path d="M0 595.28 L99.21 595.28 L99.21 552.76 L0 552.76 L0 595.28" class="st15"/>
			<path d="M8.5 595.28 L8.5 552.76" class="st15"/>
			<path d="M90.71 595.28 L90.71 552.76" class="st15"/>
			<text x="37.94" y="571.62" class="st3">Spawn <tspan x="27.01" dy="1.2em" class="st16">spaceman.sh</tspan></text>		</g>
		<g id="shape70-54" transform="translate(127.559,-336.443)">
			<title>Subprocess.70</title>
			<desc>Spawn queryrumc.sh</desc>
			<path d="M0 595.28 L99.21 595.28 L99.21 552.76 L0 552.76 L0 595.28 Z" class="st14"/>
			<path d="M0 595.28 L99.21 595.28 L99.21 552.76 L0 552.76 L0 595.28" class="st15"/>
			<path d="M8.5 595.28 L8.5 552.76" class="st15"/>
			<path d="M90.71 595.28 L90.71 552.76" class="st15"/>
			<text x="37.94" y="571.62" class="st3">Spawn <tspan x="25.79" dy="1.2em" class="st16">queryrumc.sh</tspan></text>		</g>
		<g id="shape71-61" transform="translate(460.63,-421.482)">
			<title>Dynamic connector.71</title>
			<desc>0000 Local</desc>
			<path d="M0 595.28 L0 605.06 L-283.46 605.06 L-283.46 631.76" class="st4"/>
			<rect x="-303.68" y="615.108" width="37.5971" height="9.59985" class="st17"/>
			<text x="-303.68" y="622.31" class="st7">0000 Local</text>		</g>
		<g id="shape72-68" transform="translate(177.165,-336.443)">
			<title>Dynamic connector</title>
			<path d="M0 595.28 L0 616.54 L-63.78 616.54 L-63.78 446.46 L283.46 446.46 L283.46 461.68" class="st4"/>
		</g>
		<g id="shape73-73" transform="translate(460.63,-421.482)">
			<title>Dynamic connector.73</title>
			<desc>55-minutes past the hour hourly</desc>
			<path d="M0 595.28 L0 605.06 L-141.73 605.06 L-141.73 631.76" class="st4"/>
			<rect x="-198.69" y="615.108" width="113.916" height="9.59985" class="st17"/>
			<text x="-198.69" y="622.31" class="st7">55-minutes past the hour hourly</text>		</g>
		<g id="shape74-80" transform="translate(460.63,-421.482)">
			<title>Dynamic connector.74</title>
			<desc>0100 UTC</desc>
			<path d="M0 595.28 L0 605.73 L141.73 605.73 L141.73 631.76" class="st4"/>
			<rect x="123.274" y="615.108" width="34.0818" height="9.59985" class="st17"/>
			<text x="123.27" y="622.31" class="st7">0100 UTC</text>		</g>
		<g id="shape75-87" transform="translate(318.898,-336.443)">
			<title>Dynamic connector.75</title>
			<path d="M0 595.28 L0 616.54 L-205.51 616.54 L-205.51 446.46 L141.73 446.46 L141.73 461.68" class="st4"/>
		</g>
		<g id="shape76-92" transform="translate(453.543,-336.443)">
			<title>Dynamic connector.76</title>
			<path d="M7.09 595.28 L7.09 616.54 L-340.16 616.54 L-340.16 446.46 L7.09 446.46 L7.09 461.68" class="st4"/>
		</g>
		<g id="shape77-97" transform="translate(602.362,-336.443)">
			<title>Dynamic connector.77</title>
			<path d="M0 595.28 L0 616.54 L-488.98 616.54 L-488.98 446.46 L-141.73 446.46 L-141.73 461.68" class="st4"/>
		</g>
		<g id="shape78-102" transform="translate(694.488,-336.443)">
			<title>Subprocess.78</title>
			<desc>Spawn archiveindex.sh</desc>
			<path d="M0 595.28 L99.21 595.28 L99.21 552.76 L0 552.76 L0 595.28 Z" class="st14"/>
			<path d="M0 595.28 L99.21 595.28 L99.21 552.76 L0 552.76 L0 595.28" class="st15"/>
			<path d="M8.5 595.28 L8.5 552.76" class="st15"/>
			<path d="M90.71 595.28 L90.71 552.76" class="st15"/>
			<text x="37.94" y="571.62" class="st3">Spawn <tspan x="22.75" dy="1.2em" class="st16">archiveindex.sh</tspan></text>		</g>
		<g id="shape79-109" transform="translate(460.63,-421.482)">
			<title>Dynamic connector.79</title>
			<desc>0300 UTC</desc>
			<path d="M0 595.28 L0 605.73 L283.46 605.73 L283.46 631.76" class="st4"/>
			<rect x="266.424" y="615.108" width="34.0818" height="9.59985" class="st6"/>
			<text x="266.42" y="622.31" class="st7">0300 UTC</text>		</g>
		<g id="shape80-116" transform="translate(744.094,-336.443)">
			<title>Dynamic connector.80</title>
			<path d="M0 595.28 L0 616.54 L-630.71 616.54 L-630.71 446.46 L-283.46 446.46 L-283.46 461.68" class="st4"/>
		</g>
	</g>
</svg>
