<?xml version="1.0" encoding="UTF-8" standalone="no"?>
<!DOCTYPE svg PUBLIC "-//W3C//DTD SVG 1.1//EN" "http://www.w3.org/Graphics/SVG/1.1/DTD/svg11.dtd">
<!-- Generated by Microsoft Visio, SVG Export spaceman.svg Page-1 -->
<svg xmlns="http://www.w3.org/2000/svg" xmlns:xlink="http://www.w3.org/1999/xlink" xmlns:ev="http://www.w3.org/2001/xml-events"
		width="11.6929in" height="15.748in" viewBox="0 0 841.89 1133.86" xml:space="preserve" color-interpolation-filters="sRGB"
		class="st19">
	<style type="text/css">
	<![CDATA[
		.st1 {fill:url(#grad3-4);stroke:none;stroke-linecap:round;stroke-linejoin:round;stroke-width:0.5}
		.st2 {marker-end:url(#mrkr4-10);stroke:#1998d6;stroke-linecap:round;stroke-linejoin:round;stroke-width:0.5}
		.st3 {fill:#1998d6;fill-opacity:1;stroke:#1998d6;stroke-opacity:1;stroke-width:0.16556291390728}
		.st4 {fill:#d80073;stroke:#ffffff;stroke-linecap:round;stroke-linejoin:round;stroke-width:0.5}
		.st5 {fill:#ffffff;font-family:Segoe UI;font-size:0.666664em}
		.st6 {font-size:1em}
		.st7 {fill:#1ba1e2;stroke:#ffffff;stroke-linecap:round;stroke-linejoin:round;stroke-width:0.5}
		.st8 {fill:#ffffff;stroke:none;stroke-linecap:butt;stroke-width:7.2}
		.st9 {fill:#1076a7;font-family:Segoe UI;font-size:0.666664em}
		.st10 {fill:none;stroke:none;stroke-linecap:round;stroke-linejoin:round;stroke-width:0.5}
		.st11 {fill:#1ba1e2;font-family:Segoe UI;font-size:1.00001em;font-weight:bold}
		.st12 {font-size:0.666659em;font-weight:normal}
		.st13 {fill:#1ba1e2;font-family:Segoe UI;font-size:0.833336em;font-weight:bold}
		.st14 {font-size:0.799995em}
		.st15 {font-size:0.799995em;font-weight:normal}
		.st16 {stroke:#1998d6;stroke-linecap:round;stroke-linejoin:round;stroke-width:0.5}
		.st17 {fill:#ffffff;stroke:none;stroke-linecap:butt}
		.st18 {fill:#1176a7;font-family:Segoe UI;font-size:0.666664em}
		.st19 {fill:none;fill-rule:evenodd;font-size:12px;overflow:visible;stroke-linecap:square;stroke-miterlimit:3}
	]]>
	</style>

	<defs id="Patterns_And_Gradients">
		<radialGradient id="grad3-4" cx="0.5" cy="0.5" r="0.73">
			<stop offset="0" stop-color="#d2ecf9" stop-opacity="1"/>
			<stop offset="1" stop-color="#e7f5fc" stop-opacity="1"/>
		</radialGradient>
	</defs>
	<defs id="Markers">
		<g id="lend4">
			<path d="M 2 1 L 0 0 L 2 -1 L 2 1 " style="stroke:none"/>
		</g>
		<marker id="mrkr4-10" class="st3" refX="-12.08" orient="auto" markerUnits="strokeWidth" overflow="visible">
			<use xlink:href="#lend4" transform="scale(-6.04,-6.04) "/>
		</marker>
	</defs>
	<g>
		<title>VBackground-1</title>
		<g id="shape2-1">
			<title>Center Gradient</title>
			<rect x="0" y="0" width="841.89" height="1133.86" class="st1"/>
		</g>
	</g>
	<g>
		<title>Page-1</title>
		<g id="shape2-5" transform="translate(467.717,-1045.1)">
			<title>Dynamic connector</title>
			<path d="M-7.09 1133.86 L-7.09 1170.34" class="st2"/>
		</g>
		<g id="shape4-11" transform="translate(411.024,-1045.1)">
			<title>Start/End</title>
			<desc>Start</desc>
			<path d="M14.17 1133.86 L85.04 1133.86 A14.1732 14.1732 -180 0 0 85.04 1105.51 L14.17 1105.51 A14.1732 14.1732 -180 1
						 0 14.17 1133.86 Z" class="st4"/>
			<text x="41.34" y="1122.08" class="st5">Start</text>		</g>
		<g id="shape10-14" transform="translate(411.024,-293.923)">
			<title>Start/End.8</title>
			<desc>Stop</desc>
			<path d="M14.17 1133.86 L85.04 1133.86 A14.1732 14.1732 -180 0 0 85.04 1105.51 L14.17 1105.51 A14.1732 14.1732 -180 1
						 0 14.17 1133.86 Z" class="st4"/>
			<text x="41.43" y="1122.08" class="st5">Stop</text>		</g>
		<g id="shape13-17" transform="translate(411.024,-789.986)">
			<title>Decision</title>
			<desc>Usage &#62; Warning %</desc>
			<path d="M0 1112.6 L49.61 1091.34 L99.21 1112.6 L49.61 1133.86 L0 1112.6 Z" class="st4"/>
			<text x="34.85" y="1110.2" class="st5">Usage &#62; <tspan x="30.22" dy="1.2em" class="st6">Warning %</tspan></text>		</g>
		<g id="shape15-21" transform="translate(411.024,-960.065)">
			<title>Process.15</title>
			<desc>Calculate size of used storage and free space on archive volume</desc>
			<rect x="0" y="1091.34" width="99.2126" height="42.5197" class="st7"/>
			<text x="11.71" y="1105.4" class="st5">Calculate size of used <tspan x="3.84" dy="1.2em" class="st6">storage and free space on </tspan><tspan
						x="22.97" dy="1.2em" class="st6">archive volume</tspan></text>		</g>
		<g id="shape19-26" transform="translate(403.937,-811.246)">
			<title>Dynamic connector.19</title>
			<desc>No</desc>
			<path d="M7.09 1133.86 L-63.78 1133.86 L-63.78 1637.01 L1.05 1637.01" class="st2"/>
			<rect x="-35.0997" y="1128.18" width="10.6718" height="9.59985" class="st8"/>
			<text x="-35.1" y="1135.38" class="st9">No</text>		</g>
		<g id="shape22-33" transform="translate(467.716,-960.065)">
			<title>Dynamic connector.22</title>
			<path d="M-7.09 1133.86 L-7.09 1168.92" class="st2"/>
		</g>
		<g id="shape21-38" transform="translate(411.024,-873.608)">
			<title>Decision.21</title>
			<desc>Usage &#62; Critical %</desc>
			<path d="M0 1111.18 L49.61 1088.5 L99.21 1111.18 L49.61 1133.86 L0 1111.18 Z" class="st4"/>
			<text x="38.68" y="1103.98" class="st5">Usage  <tspan x="46.87" dy="1.2em" class="st6">&#62;  </tspan><tspan x="33.23"
						dy="1.2em" class="st6">Critical %</tspan></text>		</g>
		<g id="shape23-43" transform="translate(467.716,-873.608)">
			<title>Dynamic connector.23</title>
			<desc>No</desc>
			<path d="M-7.09 1133.86 L-7.09 1168.92" class="st2"/>
			<rect x="-12.4226" y="1149.61" width="10.6718" height="9.59985" class="st8"/>
			<text x="-12.42" y="1156.81" class="st9">No</text>		</g>
		<g id="shape63-50" transform="translate(28.3465,-1073.45)">
			<title>Sheet.63</title>
			<desc>Archive Space Management spaceman.sh</desc>
			<rect x="0" y="1101.8" width="253.825" height="32.0612" class="st10"/>
			<text x="2" y="1114.6" class="st11">Archive Space Management <tspan x="2" dy="1.35em" class="st12">spaceman.sh</tspan></text>		</g>
		<g id="shape65-54" transform="translate(28.3465,-761.102)">
			<title>Sheet.65</title>
			<desc>Dependencies Configuration variables defined in script file S...</desc>
			<rect x="0" y="837.856" width="198.425" height="296.002" class="st10"/>
			<text x="2" y="848.86" class="st13">Dependencies  <tspan x="2" dy="2.475em" class="st14">Configuration</tspan><tspan
						x="2" dy="1.2em" class="st15">variables defined in script file </tspan><tspan x="2" dy="2.4em" class="st14">Software</tspan><tspan
						x="2" dy="1.2em" class="st15">bash (shell script processor)  </tspan><tspan x="2" dy="2.4em" class="st14">Data</tspan><tspan
						x="2" dy="1.2em" class="st15">/var/spool/rtmarchive (data archive storage)  </tspan><tspan x="2" dy="2.4em"
						class="st14">Output </tspan><tspan x="2" dy="1.2em" class="st15">Syslog for warning and critical events </tspan><tspan
						x="2" dy="1.2em" class="st15">Email for warning and critical events</tspan></text>		</g>
		<g id="shape66-66" transform="translate(659.055,-843.307)">
			<title>Process.66</title>
			<desc>Send Critical Alert Log and Email</desc>
			<rect x="0" y="1091.34" width="99.2126" height="42.5197" class="st7"/>
			<text x="18.18" y="1110.2" class="st5">Send Critical Alert <tspan x="24.74" dy="1.2em" class="st6">Log and Email</tspan></text>		</g>
		<g id="shape67-70" transform="translate(510.236,-896.285)">
			<title>Dynamic connector.67</title>
			<desc>Yes</desc>
			<path d="M0 1133.86 L21.26 1133.86 L21.26 1165.58 L142.78 1165.58" class="st2"/>
			<rect x="52.5504" y="1160.78" width="11.9998" height="9.59985" class="st8"/>
			<text x="52.55" y="1167.98" class="st9">Yes</text>		</g>
		<g id="shape68-77" transform="translate(588.189,-758.268)">
			<title>Process.68</title>
			<desc>Send Warning Alert Log and Email</desc>
			<rect x="0" y="1091.34" width="99.2126" height="42.5197" class="st7"/>
			<text x="15.18" y="1110.2" class="st5">Send Warning Alert <tspan x="24.74" dy="1.2em" class="st6">Log and Email</tspan></text>		</g>
		<g id="shape69-81" transform="translate(510.236,-811.246)">
			<title>Dynamic connector.69</title>
			<desc>Yes</desc>
			<path d="M0 1133.86 L21.26 1133.86 L21.26 1165.58 L71.91 1165.58" class="st2"/>
			<rect x="17.1174" y="1160.78" width="11.9998" height="9.59985" class="st8"/>
			<text x="17.12" y="1167.98" class="st9">Yes</text>		</g>
		<g id="shape70-88" transform="translate(411.024,-704.947)">
			<title>Process.70</title>
			<desc>Flag for Clean Up</desc>
			<rect x="0" y="1091.34" width="99.2126" height="42.5197" class="st7"/>
			<text x="19.08" y="1115" class="st5">Flag for Clean Up</text>		</g>
		<g id="shape71-91" transform="translate(637.795,-758.268)">
			<title>Dynamic connector.71</title>
			<path d="M0 1133.86 L0 1165.92 L-121.52 1165.92" class="st2"/>
		</g>
		<g id="shape72-96" transform="translate(708.661,-843.307)">
			<title>Dynamic connector.72</title>
			<path d="M0 1133.86 L0 1155.12 L0 1250.96 L-192.39 1250.96" class="st2"/>
		</g>
		<g id="shape75-101" transform="translate(453.543,-704.947)">
			<title>Dynamic connector.75</title>
			<path d="M7.09 1133.86 L7.09 1170.34" class="st2"/>
		</g>
		<g id="shape74-106" transform="translate(411.024,-619.907)">
			<title>Decision.74</title>
			<desc>Auto Clean Up Allowed</desc>
			<path d="M0 1112.6 L49.61 1091.34 L99.21 1112.6 L49.61 1133.86 L0 1112.6 Z" class="st4"/>
			<text x="23.94" y="1110.2" class="st5">Auto Clean Up <tspan x="35.41" dy="1.2em" class="st6">Allowed</tspan></text>		</g>
		<g id="shape76-110" transform="translate(403.937,-641.167)">
			<title>Dynamic connector.76</title>
			<desc>No</desc>
			<path d="M7.09 1133.86 L-63.78 1133.86 L-63.78 1466.93 L1.05 1466.93" class="st2"/>
			<rect x="-36.5171" y="1132.43" width="10.6718" height="9.59985" class="st8"/>
			<text x="-36.52" y="1139.63" class="st9">No</text>		</g>
		<g id="shape77-117" transform="translate(453.543,-619.907)">
			<title>Dynamic connector.77</title>
			<desc>Yes</desc>
			<path d="M7.09 1133.86 L7.09 1170.34" class="st2"/>
			<rect x="1.08677" y="1150.32" width="11.9998" height="9.59985" class="st8"/>
			<text x="1.09" y="1157.52" class="st9">Yes</text>		</g>
		<g id="shape78-124" transform="translate(411.024,-534.868)">
			<title>Process.78</title>
			<desc>Determine oldest data in archive</desc>
			<rect x="0" y="1091.34" width="99.2126" height="42.5197" class="st7"/>
			<text x="5.99" y="1110.2" class="st5">Determine oldest data in <tspan x="37.09" dy="1.2em" class="st6">archive</tspan></text>		</g>
		<g id="shape82-128" transform="translate(453.543,-534.868)">
			<title>Dynamic connector.82</title>
			<path d="M7.09 1133.86 L7.09 1170.34" class="st2"/>
		</g>
		<g id="shape81-133" transform="translate(411.024,-449.829)">
			<title>Decision.81</title>
			<desc>Data older than retention limit?</desc>
			<path d="M0 1112.6 L49.61 1091.34 L99.21 1112.6 L49.61 1133.86 L0 1112.6 Z" class="st4"/>
			<text x="22.12" y="1110.2" class="st5">Data older than <tspan x="22.89" dy="1.2em" class="st6">retention limit?</tspan></text>		</g>
		<g id="shape83-137" transform="translate(403.937,-471.088)">
			<title>Dynamic connector.83</title>
			<desc>No</desc>
			<path d="M7.09 1133.86 L-63.78 1133.86 L-63.78 1296.85 L1.05 1296.85" class="st2"/>
			<rect x="-35.0997" y="1132.43" width="10.6718" height="9.59985" class="st8"/>
			<text x="-35.1" y="1139.63" class="st9">No</text>		</g>
		<g id="shape84-144" transform="translate(-496.063,483.321) rotate(-90)">
			<title>Side line callout</title>
			<desc>$AUTO_MANAGE flag</desc>
			<path d="M-9.37 1006.3 L8.8 1048.82" class="st16"/>
			<path d="M0 1048.82 L17.6 1048.82" class="st16"/>
			<rect x="1052.82" y="-13.6015" width="76.9482" height="9.59985" transform="rotate(90)" class="st17"/>
			<text x="1052.82" y="-6.4" transform="rotate(90)" class="st18">$AUTO_MANAGE flag</text>		</g>
		<g id="shape85-150" transform="translate(-751.181,292.266) rotate(-90)">
			<title>Side line callout.85</title>
			<desc>$WARNPER variable</desc>
			<path d="M-30.35 1162.2 L8.8 1133.86" class="st16"/>
			<path d="M0 1133.86 L17.6 1133.86" class="st16"/>
			<rect x="1059.13" y="-13.6015" width="70.7333" height="9.59985" transform="rotate(90)" class="st8"/>
			<text x="1059.13" y="-6.4" transform="rotate(90)" class="st18">$WARNPER variable</text>		</g>
		<g id="shape86-156" transform="translate(-751.181,207.227) rotate(-90)">
			<title>Side line callout.86</title>
			<desc>$CRITPER variable</desc>
			<path d="M-30.35 1162.2 L8.8 1133.86" class="st16"/>
			<path d="M0 1133.86 L17.6 1133.86" class="st16"/>
			<rect x="1066.47" y="-13.6015" width="63.3897" height="9.59985" transform="rotate(90)" class="st8"/>
			<text x="1066.47" y="-6.4" transform="rotate(90)" class="st18">$CRITPER variable</text>		</g>
		<g id="shape90-162" transform="translate(453.543,-449.829)">
			<title>Dynamic connector.90</title>
			<desc>Yes</desc>
			<path d="M7.09 1133.86 L7.09 1170.34" class="st2"/>
			<rect x="1.08677" y="1150.32" width="11.9998" height="9.59985" class="st17"/>
			<text x="1.09" y="1157.52" class="st9">Yes</text>		</g>
		<g id="shape91-169" transform="translate(411.024,-364.789)">
			<title>Process.91</title>
			<desc>Delete data if year and month exceed retention time.</desc>
			<rect x="0" y="1091.34" width="99.2126" height="42.5197" class="st7"/>
			<text x="9.71" y="1105.4" class="st5">Delete data if year and <tspan x="7.3" dy="1.2em" class="st6">month exceed retention </tspan><tspan
						x="40.88" dy="1.2em" class="st6">time.</tspan></text>		</g>
		<g id="shape92-174" transform="translate(-460.63,640.928) rotate(-90)">
			<title>Side line callout.92</title>
			<desc>$RETENTION_YEARS variable</desc>
			<path d="M-21.84 970.87 L8.8 1013.39" class="st16"/>
			<path d="M0 1013.39 L17.6 1013.39" class="st16"/>
			<rect x="1017.39" y="-13.6015" width="101.393" height="9.59985" transform="rotate(90)" class="st8"/>
			<text x="1017.39" y="-6.4" transform="rotate(90)" class="st18">$RETENTION_YEARS variable</text>		</g>
		<g id="shape94-180" transform="translate(453.543,-364.789)">
			<title>Dynamic connector.94</title>
			<path d="M7.09 1133.86 L7.09 1170.34" class="st2"/>
		</g>
	</g>
</svg>
