<?xml version="1.0" encoding="UTF-8" standalone="no"?>
<!DOCTYPE svg PUBLIC "-//W3C//DTD SVG 1.1//EN" "http://www.w3.org/Graphics/SVG/1.1/DTD/svg11.dtd">
<!-- Generated by Microsoft Visio, SVG Export webui.svg Page-1 -->
<svg xmlns="http://www.w3.org/2000/svg" xmlns:xlink="http://www.w3.org/1999/xlink" xmlns:ev="http://www.w3.org/2001/xml-events"
		width="44.4094in" height="23.2283in" viewBox="0 0 3197.48 1672.44" xml:space="preserve" color-interpolation-filters="sRGB"
		class="st20">
	<style type="text/css">
	<![CDATA[
		.st1 {fill:url(#grad3-4);stroke:none;stroke-linecap:round;stroke-linejoin:round;stroke-width:0.5}
		.st2 {marker-end:url(#mrkr4-10);stroke:#1998d6;stroke-linecap:round;stroke-linejoin:round;stroke-width:0.5}
		.st3 {fill:#1998d6;fill-opacity:1;stroke:#1998d6;stroke-opacity:1;stroke-width:0.16556291390728}
		.st4 {fill:#d80073;stroke:#ffffff;stroke-linecap:round;stroke-linejoin:round;stroke-width:0.5}
		.st5 {fill:#ffffff;font-family:Segoe UI;font-size:0.666664em}
		.st6 {fill:#f09609;stroke:#ffffff;stroke-linecap:round;stroke-linejoin:round;stroke-width:0.5}
		.st7 {fill:#ffffff;font-family:Segoe UI;font-size:0.499992em}
		.st8 {font-size:1em}
		.st9 {fill:#1ba1e2;stroke:#ffffff;stroke-linecap:round;stroke-linejoin:round;stroke-width:0.5}
		.st10 {fill:none;stroke:none;stroke-linecap:round;stroke-linejoin:round;stroke-width:0.5}
		.st11 {fill:#1ba1e2;font-family:Segoe UI;font-size:1.00001em;font-weight:bold}
		.st12 {font-size:0.666659em;font-weight:normal}
		.st13 {fill:#1ba1e2;font-family:Segoe UI;font-size:0.833336em;font-weight:bold}
		.st14 {font-size:0.799995em}
		.st15 {font-size:0.799995em;font-weight:normal}
		.st16 {fill:#ffffff;stroke:none;stroke-linecap:butt;stroke-width:7.2}
		.st17 {fill:#1076a7;font-family:Segoe UI;font-size:0.666664em}
		.st18 {fill:#ffffff;stroke:none;stroke-linecap:butt}
		.st19 {fill:#1076a7;font-family:Segoe UI;font-size:0.666664em;font-weight:bold}
		.st20 {fill:none;fill-rule:evenodd;font-size:12px;overflow:visible;stroke-linecap:square;stroke-miterlimit:3}
	]]>
	</style>

	<defs id="Patterns_And_Gradients">
		<radialGradient id="grad3-4" cx="0.5" cy="0.5" r="0.73">
			<stop offset="0" stop-color="#d2ecf9" stop-opacity="1"/>
			<stop offset="1" stop-color="#e7f5fc" stop-opacity="1"/>
		</radialGradient>
	</defs>
	<defs id="Markers">
		<g id="lend4">
			<path d="M 2 1 L 0 0 L 2 -1 L 2 1 " style="stroke:none"/>
		</g>
		<marker id="mrkr4-10" class="st3" refX="-12.08" orient="auto" markerUnits="strokeWidth" overflow="visible">
			<use xlink:href="#lend4" transform="scale(-6.04,-6.04) "/>
		</marker>
	</defs>
	<g>
		<title>VBackground-1</title>
		<g id="shape2-1">
			<title>Center Gradient</title>
			<rect x="0" y="0" width="3197.48" height="1672.44" class="st1"/>
		</g>
	</g>
	<g>
		<title>Page-1</title>
		<g id="shape2-5" transform="translate(1238.74,-1583.69)">
			<title>Dynamic connector</title>
			<path d="M7.09 1672.44 L7.09 1708.92" class="st2"/>
		</g>
		<g id="shape4-11" transform="translate(1196.22,-1583.69)">
			<title>Start/End</title>
			<desc>Start</desc>
			<path d="M14.17 1672.44 L85.04 1672.44 A14.1732 14.1732 -180 0 0 85.04 1644.09 L14.17 1644.09 A14.1732 14.1732 -180 1
						 0 14.17 1672.44 Z" class="st4"/>
			<text x="41.34" y="1660.67" class="st5">Start</text>		</g>
		<g id="shape5-14" transform="translate(1337.95,-988.411)">
			<title>Data</title>
			<desc>Read current config and authorisation from activedatasets.conf</desc>
			<path d="M-10.63 1672.44 L88.58 1672.44 L109.84 1629.92 L10.63 1629.92 L-10.63 1672.44 Z" class="st6"/>
			<text x="17.77" y="1645.78" class="st7">Read current config and <tspan x="25" dy="1.2em" class="st8">authorisation from </tspan><tspan
						x="24.55" dy="1.2em" class="st8">activedatasets.conf</tspan></text>		</g>
		<g id="shape10-19" transform="translate(1337.95,-407.309)">
			<title>Start/End.8</title>
			<desc>Stop</desc>
			<path d="M14.17 1672.44 L85.04 1672.44 A14.1732 14.1732 -180 0 0 85.04 1644.09 L14.17 1644.09 A14.1732 14.1732 -180 1
						 0 14.17 1672.44 Z" class="st4"/>
			<text x="41.43" y="1660.67" class="st5">Stop</text>		</g>
		<g id="shape11-22" transform="translate(1337.95,-1073.45)">
			<title>Process</title>
			<desc>PHP vamd.php</desc>
			<rect x="0" y="1629.92" width="99.2126" height="42.5197" class="st9"/>
			<text x="23.6" y="1653.58" class="st5">PHP vamd.php</text>		</g>
		<g id="shape15-25" transform="translate(1196.22,-1243.53)">
			<title>Process.15</title>
			<desc>Apache directs via rewrite plugin configuration</desc>
			<rect x="0" y="1629.92" width="99.2126" height="42.5197" class="st9"/>
			<text x="4.34" y="1648.78" class="st5">Apache directs via rewrite <tspan x="13.69" dy="1.2em" class="st8">plugin configuration</tspan></text>		</g>
		<g id="shape63-29" transform="translate(813.543,-1612.03)">
			<title>Sheet.63</title>
			<desc>Archive Server, Web UI and Recovery AMD index.php &#38; vamd.php</desc>
			<rect x="0" y="1640.38" width="253.825" height="32.0612" class="st10"/>
			<text x="2" y="1653.18" class="st11">Archive Server, Web UI and Recovery AMD <tspan x="2" dy="1.35em" class="st12">index.php &#38; vamd.php</tspan></text>		</g>
		<g id="shape65-33" transform="translate(813.543,-1303.94)">
			<title>Sheet.65</title>
			<desc>Dependencies Configuration /etc/httpd/conf.d/0_rtmarchive.con...</desc>
			<rect x="0" y="1376.44" width="221.102" height="296.002" class="st10"/>
			<text x="2" y="1387.44" class="st13">Dependencies  <tspan x="2" dy="2.475em" class="st14">Configuration</tspan><tspan
						x="2" dy="1.2em" class="st15">/etc/httpd/conf.d/0_rtmarchive.conf </tspan><tspan x="2" dy="1.2em"
						class="st15">activedatasets.conf </tspan><tspan x="2" dy="2.4em" class="st14">Software</tspan><tspan x="2"
						dy="1.2em" class="st15">php </tspan><tspan x="2" dy="1.2em" class="st15">apache  </tspan><tspan x="2"
						dy="2.4em" class="st14">Data</tspan><tspan x="2" dy="1.2em" class="st15">/var/spool/rtmarchive (primary archive storage location) </tspan><tspan
						x="2" dy="1.2em" class="st15">/var/spool/rtmarchive/.temp (temporary storage for archive </tspan><tspan
						x="2" dy="1.2em" class="st15">recovery)</tspan></text>		</g>
		<g id="shape74-46" transform="translate(1196.22,-1158.49)">
			<title>Decision.74</title>
			<desc>UI or AMD?</desc>
			<path d="M0 1651.18 L49.61 1629.92 L99.21 1651.18 L49.61 1672.44 L0 1651.18 Z" class="st4"/>
			<text x="29.1" y="1653.58" class="st5">UI or AMD?</text>		</g>
		<g id="shape75-49" transform="translate(1196.22,-1498.65)">
			<title>Process.75</title>
			<desc>Apache daemon waiting for connection.</desc>
			<rect x="0" y="1629.92" width="99.2126" height="42.5197" class="st9"/>
			<text x="6.87" y="1648.78" class="st5">Apache daemon waiting <tspan x="23.07" dy="1.2em" class="st8">for connection.</tspan></text>		</g>
		<g id="shape76-53" transform="translate(1196.22,-1413.61)">
			<title>Decision.76</title>
			<desc>Incoming HTTP connection</desc>
			<path d="M0 1651.18 L49.61 1629.92 L99.21 1651.18 L49.61 1672.44 L0 1651.18 Z" class="st4"/>
			<text x="22.69" y="1648.78" class="st5">Incoming HTTP <tspan x="30.02" dy="1.2em" class="st8">connection</tspan></text>		</g>
		<g id="shape77-57" transform="translate(1295.43,-1434.87)">
			<title>Dynamic connector.77</title>
			<desc>No</desc>
			<path d="M0 1672.44 L21.26 1672.44 L21.26 1544.88 L-49.61 1544.88 L-49.61 1560.1" class="st2"/>
			<rect x="15.9238" y="1656.84" width="10.6718" height="9.59985" class="st16"/>
			<text x="15.92" y="1664.04" class="st17">No</text>		</g>
		<g id="shape78-64" transform="translate(1238.74,-1498.65)">
			<title>Dynamic connector.78</title>
			<path d="M7.09 1672.44 L7.09 1708.92" class="st2"/>
		</g>
		<g id="shape79-69" transform="translate(1238.74,-1413.61)">
			<title>Dynamic connector.79</title>
			<desc>Yes</desc>
			<path d="M7.09 1672.44 L7.09 1708.92" class="st2"/>
			<rect x="1.08677" y="1688.9" width="11.9998" height="9.59985" class="st16"/>
			<text x="1.09" y="1696.1" class="st17">Yes</text>		</g>
		<g id="shape80-76" transform="translate(1238.74,-1243.53)">
			<title>Dynamic connector.80</title>
			<path d="M7.09 1672.44 L7.09 1708.92" class="st2"/>
		</g>
		<g id="shape81-81" transform="translate(1196.22,-1328.57)">
			<title>Process.81</title>
			<desc>Spawn new worker</desc>
			<rect x="0" y="1629.92" width="99.2126" height="42.5197" class="st9"/>
			<text x="16.41" y="1653.58" class="st5">Spawn new worker</text>		</g>
		<g id="shape82-84" transform="translate(1252.91,-1328.57)">
			<title>Dynamic connector.82</title>
			<path d="M-7.09 1672.44 L-7.09 1708.92" class="st2"/>
		</g>
		<g id="shape83-89" transform="translate(1295.43,-1349.83)">
			<title>Dynamic connector.83</title>
			<desc>Resume waiting</desc>
			<path d="M0 1672.44 L21.26 1672.44 L21.26 1459.84 L-49.61 1459.84 L-49.61 1475.06" class="st2"/>
			<rect x="-6.65578" y="1635.3" width="55.8314" height="9.59985" class="st16"/>
			<text x="-6.66" y="1642.5" class="st17">Resume waiting</text>		</g>
		<g id="shape86-96" transform="translate(1295.43,-1179.75)">
			<title>Dynamic connector.86</title>
			<desc>AMD</desc>
			<path d="M0 1672.44 L92.13 1672.44 L92.13 1730.18" class="st2"/>
			<rect x="40.8679" y="1671.01" width="17.953" height="9.59985" class="st16"/>
			<text x="40.87" y="1678.21" class="st17">AMD</text>		</g>
		<g id="shape87-103" transform="translate(1380.47,-1073.45)">
			<title>Dynamic connector.87</title>
			<path d="M7.09 1672.44 L7.09 1708.92" class="st2"/>
		</g>
		<g id="shape89-108" transform="translate(1054.49,-1073.45)">
			<title>Process.89</title>
			<desc>PHP index.php</desc>
			<rect x="0" y="1629.92" width="99.2126" height="42.5197" class="st9"/>
			<text x="23.84" y="1653.58" class="st5">PHP index.php</text>		</g>
		<g id="shape90-111" transform="translate(1196.22,-1179.75)">
			<title>Dynamic connector.90</title>
			<desc>UI</desc>
			<path d="M0 1672.44 L-92.13 1672.44 L-92.13 1730.18" class="st2"/>
			<rect x="-50.5841" y="1666.76" width="7.62506" height="9.59985" class="st16"/>
			<text x="-50.58" y="1673.96" class="st17">UI</text>		</g>
		<g id="shape91-118" transform="translate(1337.95,-903.372)">
			<title>Process.91</title>
			<desc>Parse passed URL parameters</desc>
			<rect x="0" y="1629.92" width="99.2126" height="42.5197" class="st9"/>
			<text x="18.71" y="1648.78" class="st5">Parse passed URL <tspan x="29.72" dy="1.2em" class="st8">parameters</tspan></text>		</g>
		<g id="shape92-122" transform="translate(1380.47,-988.411)">
			<title>Dynamic connector.92</title>
			<path d="M7.09 1672.44 L7.09 1708.92" class="st2"/>
		</g>
		<g id="shape93-127" transform="translate(1337.95,-818.332)">
			<title>Process.93</title>
			<desc>Parse authentication data</desc>
			<rect x="0" y="1629.92" width="99.2126" height="42.5197" class="st9"/>
			<text x="4.77" y="1653.58" class="st5">Parse authentication data</text>		</g>
		<g id="shape94-130" transform="translate(1380.47,-903.372)">
			<title>Dynamic connector.94</title>
			<path d="M7.09 1672.44 L7.09 1708.92" class="st2"/>
		</g>
		<g id="shape95-135" transform="translate(1337.95,-733.293)">
			<title>Decision.95</title>
			<desc>Authentication present and valid?</desc>
			<path d="M0 1651.18 L49.61 1629.92 L99.21 1651.18 L49.61 1672.44 L0 1651.18 Z" class="st4"/>
			<text x="23.65" y="1648.78" class="st5">Authentication <tspan x="17.48" dy="1.2em" class="st8">present and valid?</tspan></text>		</g>
		<g id="shape96-139" transform="translate(1380.47,-818.332)">
			<title>Dynamic connector.96</title>
			<path d="M7.09 1672.44 L7.09 1708.92" class="st2"/>
		</g>
		<g id="shape97-144" transform="translate(1337.95,-754.553)">
			<title>Dynamic connector.97</title>
			<desc>No</desc>
			<path d="M0 1672.44 L-517.32 1672.44 L-517.32 1730.18" class="st2"/>
			<rect x="-20.4296" y="1671.01" width="10.6718" height="9.59985" class="st16"/>
			<text x="-20.43" y="1678.21" class="st17">No</text>		</g>
		<g id="shape98-151" transform="translate(771.024,-648.254)">
			<title>Process.98</title>
			<desc>Return HTTP 401 (get browser to collect authentication data)</desc>
			<rect x="0" y="1629.92" width="99.2126" height="42.5197" class="st9"/>
			<text x="19.92" y="1643.98" class="st5">Return HTTP 401 <tspan x="10.03" dy="1.2em" class="st8">(get browser to collect </tspan><tspan
						x="14.11" dy="1.2em" class="st8">authentication data)</tspan></text>		</g>
		<g id="shape100-156" transform="translate(1337.95,-648.254)">
			<title>Decision.100</title>
			<desc>Execute command</desc>
			<path d="M0 1651.18 L49.61 1629.92 L99.21 1651.18 L49.61 1672.44 L0 1651.18 Z" class="st4"/>
			<text x="17.26" y="1653.58" class="st5">Execute command</text>		</g>
		<g id="shape101-159" transform="translate(1380.47,-733.293)">
			<title>Dynamic connector.101</title>
			<desc>Yes</desc>
			<path d="M7.09 1672.44 L7.09 1708.92" class="st2"/>
			<rect x="1.08677" y="1688.9" width="11.9998" height="9.59985" class="st16"/>
			<text x="1.09" y="1696.1" class="st17">Yes</text>		</g>
		<g id="shape102-166" transform="translate(1337.95,-563.214)">
			<title>Process.102</title>
			<desc>Return version response</desc>
			<rect x="0" y="1629.92" width="99.2126" height="42.5197" class="st9"/>
			<text x="7.06" y="1653.58" class="st5">Return version response</text>		</g>
		<g id="shape103-169" transform="translate(1380.47,-648.254)">
			<title>Dynamic connector.103</title>
			<desc>version</desc>
			<path d="M7.09 1672.44 L7.09 1708.92" class="st2"/>
			<rect x="-5.58522" y="1698.51" width="25.3435" height="9.59985" class="st16"/>
			<text x="-5.59" y="1705.71" class="st17">version</text>		</g>
		<g id="shape104-176" transform="translate(1479.69,-563.214)">
			<title>Process.104</title>
			<desc>Return instance list</desc>
			<rect x="0" y="1629.92" width="99.2126" height="42.5197" class="st9"/>
			<text x="16.14" y="1653.58" class="st5">Return instance list</text>		</g>
		<g id="shape107-179" transform="translate(1387.56,-648.254)">
			<title>Dynamic connector.107</title>
			<desc>instance</desc>
			<path d="M0 1672.44 L0 1693.7 L141.73 1693.7 L141.73 1708.92" class="st2"/>
			<rect x="127.209" y="1697.94" width="29.0462" height="9.59985" class="st18"/>
			<text x="127.21" y="1705.14" class="st17">instance</text>		</g>
		<g id="shape108-186" transform="translate(1196.22,-563.214)">
			<title>Process.108</title>
			<desc>Parse extracted archive data</desc>
			<rect x="0" y="1629.92" width="99.2126" height="42.5197" class="st9"/>
			<text x="9.09" y="1648.78" class="st5">Parse extracted archive <tspan x="41.83" dy="1.2em" class="st8">data</tspan></text>		</g>
		<g id="shape109-190" transform="translate(1387.56,-648.254)">
			<title>Dynamic connector.109</title>
			<desc>get_dir / zip_dir</desc>
			<path d="M0 1672.44 L0 1693.7 L-141.73 1693.7 L-141.73 1708.92" class="st2"/>
			<rect x="-169.164" y="1697.94" width="54.863" height="9.59985" class="st18"/>
			<text x="-169.16" y="1705.14" class="st17">get_dir / zip_dir</text>		</g>
		<g id="shape110-197" transform="translate(1196.22,-478.175)">
			<title>Process.110</title>
			<desc>Return list of available data files</desc>
			<rect x="0" y="1629.92" width="99.2126" height="42.5197" class="st9"/>
			<text x="10.6" y="1648.78" class="st5">Return list of available <tspan x="33.75" dy="1.2em" class="st8">data files</tspan></text>		</g>
		<g id="shape111-201" transform="translate(1238.74,-563.214)">
			<title>Dynamic connector.111</title>
			<path d="M7.09 1672.44 L7.09 1708.92" class="st2"/>
		</g>
		<g id="shape112-206" transform="translate(1054.49,-563.214)">
			<title>Process.112</title>
			<desc>Return data file content</desc>
			<rect x="0" y="1629.92" width="99.2126" height="42.5197" class="st9"/>
			<text x="7.98" y="1653.58" class="st5">Return data file content</text>		</g>
		<g id="shape113-209" transform="translate(1387.56,-648.254)">
			<title>Dynamic connector.113</title>
			<desc>get_entry / zip_entry</desc>
			<path d="M0 1672.44 L0 1693.7 L-283.46 1693.7 L-283.46 1708.92" class="st2"/>
			<rect x="-318.123" y="1698.51" width="72.1516" height="9.59985" class="st16"/>
			<text x="-318.12" y="1705.71" class="st17">get_entry / zip_entry</text>		</g>
		<g id="shape114-216" transform="translate(1621.42,-563.214)">
			<title>Process.114</title>
			<desc>Return failure HTTP 503 to appease RUM Console</desc>
			<rect x="0" y="1629.92" width="99.2126" height="42.5197" class="st9"/>
			<text x="7.85" y="1648.78" class="st5">Return failure HTTP 503  <tspan x="5.05" dy="1.2em" class="st8">to appease RUM Console</tspan></text>		</g>
		<g id="shape115-220" transform="translate(1387.56,-648.254)">
			<title>Dynamic connector.115</title>
			<desc>exportconfig</desc>
			<path d="M0 1672.44 L0 1693.7 L283.46 1693.7 L283.46 1708.92" class="st2"/>
			<rect x="261.065" y="1698.51" width="44.8003" height="9.59985" class="st16"/>
			<text x="261.06" y="1705.71" class="st17">exportconfig</text>		</g>
		<g id="shape116-227" transform="translate(1763.15,-563.214)">
			<title>Process.116</title>
			<desc>Parse configuration data</desc>
			<rect x="0" y="1629.92" width="99.2126" height="42.5197" class="st9"/>
			<text x="6.53" y="1653.58" class="st5">Parse configuration data</text>		</g>
		<g id="shape117-230" transform="translate(1387.56,-648.254)">
			<title>Dynamic connector.117</title>
			<desc>get_cfg_dir</desc>
			<path d="M0 1672.44 L0 1693.7 L425.2 1693.7 L425.2 1708.92" class="st2"/>
			<rect x="405.904" y="1697.94" width="38.5856" height="9.59985" class="st18"/>
			<text x="405.9" y="1705.14" class="st17">get_cfg_dir</text>		</g>
		<g id="shape118-237" transform="translate(1763.15,-478.175)">
			<title>Process.118</title>
			<desc>Return list of available configuration files</desc>
			<rect x="0" y="1629.92" width="99.2126" height="42.5197" class="st9"/>
			<text x="10.6" y="1648.78" class="st5">Return list of available <tspan x="17.88" dy="1.2em" class="st8">configuration files</tspan></text>		</g>
		<g id="shape119-241" transform="translate(1805.67,-563.214)">
			<title>Dynamic connector.119</title>
			<path d="M7.09 1672.44 L7.09 1708.92" class="st2"/>
		</g>
		<g id="shape120-246" transform="translate(1904.88,-563.214)">
			<title>Process.120</title>
			<desc>Return config file content</desc>
			<rect x="0" y="1629.92" width="99.2126" height="42.5197" class="st9"/>
			<text x="4.73" y="1653.58" class="st5">Return config file content</text>		</g>
		<g id="shape121-249" transform="translate(1387.56,-648.254)">
			<title>Dynamic connector.121</title>
			<desc>console_get</desc>
			<path d="M0 1672.44 L0 1693.7 L566.93 1693.7 L566.93 1708.92" class="st2"/>
			<rect x="545.91" y="1698.51" width="42.0389" height="9.59985" class="st16"/>
			<text x="545.91" y="1705.71" class="st17">console_get</text>		</g>
		<g id="shape122-256" transform="translate(2046.61,-563.214)">
			<title>Process.122</title>
			<desc>Return archived AMDs unique ID</desc>
			<rect x="0" y="1629.92" width="99.2126" height="42.5197" class="st9"/>
			<text x="10.11" y="1648.78" class="st5">Return archived AMDs <tspan x="32.43" dy="1.2em" class="st8">unique ID</tspan></text>		</g>
		<g id="shape123-260" transform="translate(1387.56,-648.254)">
			<title>Dynamic connector.123</title>
			<desc>hid</desc>
			<path d="M0 1672.44 L0 1693.7 L708.66 1693.7 L708.66 1708.92" class="st2"/>
			<rect x="703.074" y="1697.94" width="11.1756" height="9.59985" class="st18"/>
			<text x="703.07" y="1705.14" class="st17">hid</text>		</g>
		<g id="shape124-267" transform="translate(2188.35,-563.214)">
			<title>Process.124</title>
			<desc>Return license data</desc>
			<rect x="0" y="1629.92" width="99.2126" height="42.5197" class="st9"/>
			<text x="15.95" y="1653.58" class="st5">Return license data</text>		</g>
		<g id="shape125-270" transform="translate(1387.56,-648.254)">
			<title>Dynamic connector.125</title>
			<desc>v2</desc>
			<path d="M0 1672.44 L0 1693.7 L850.39 1693.7 L850.39 1708.92" class="st2"/>
			<rect x="846.321" y="1698.51" width="8.14444" height="9.59985" class="st16"/>
			<text x="846.32" y="1705.71" class="st17">v2</text>		</g>
		<g id="shape126-277" transform="translate(912.756,-563.214)">
			<title>Process.126</title>
			<desc>Return 404 error</desc>
			<rect x="0" y="1629.92" width="99.2126" height="42.5197" class="st9"/>
			<text x="20.58" y="1653.58" class="st5">Return 404 error</text>		</g>
		<g id="shape127-280" transform="translate(1387.56,-648.254)">
			<title>Dynamic connector.127</title>
			<desc>Unknown command</desc>
			<path d="M0 1672.44 L0 1693.7 L-425.2 1693.7 L-425.2 1708.92" class="st2"/>
			<rect x="-463.066" y="1698.51" width="75.7378" height="9.59985" class="st16"/>
			<text x="-463.07" y="1705.71" class="st19">Unknown command</text>		</g>
		<g id="shape128-287" transform="translate(2330.08,-563.214)">
			<title>Process.128</title>
			<desc>Return faked status data</desc>
			<rect x="0" y="1629.92" width="99.2126" height="42.5197" class="st9"/>
			<text x="6.65" y="1653.58" class="st5">Return faked status data</text>		</g>
		<g id="shape129-290" transform="translate(1387.56,-648.254)">
			<title>Dynamic connector.129</title>
			<desc>get_status</desc>
			<path d="M0 1672.44 L0 1693.7 L992.13 1693.7 L992.13 1708.92" class="st2"/>
			<rect x="974.259" y="1697.94" width="35.7339" height="9.59985" class="st16"/>
			<text x="974.26" y="1705.14" class="st17">get_status</text>		</g>
		<g id="shape130-297" transform="translate(962.362,-563.214)">
			<title>Dynamic connector.130</title>
			<path d="M0 1672.44 L0 1778.74 L425.2 1778.74 L425.2 1793.96" class="st2"/>
		</g>
		<g id="shape131-302" transform="translate(1104.09,-563.214)">
			<title>Dynamic connector.131</title>
			<path d="M0 1672.44 L0 1778.74 L283.46 1778.74 L283.46 1793.96" class="st2"/>
		</g>
		<g id="shape132-307" transform="translate(1245.83,-478.175)">
			<title>Dynamic connector.132</title>
			<path d="M0 1672.44 L0 1693.7 L141.73 1693.7 L141.73 1708.92" class="st2"/>
		</g>
		<g id="shape133-312" transform="translate(1380.47,-563.214)">
			<title>Dynamic connector.133</title>
			<path d="M7.09 1672.44 L7.09 1793.96" class="st2"/>
		</g>
		<g id="shape134-317" transform="translate(1529.29,-563.214)">
			<title>Dynamic connector.134</title>
			<path d="M0 1672.44 L0 1778.74 L-141.73 1778.74 L-141.73 1793.96" class="st2"/>
		</g>
		<g id="shape135-322" transform="translate(1671.02,-563.214)">
			<title>Dynamic connector.135</title>
			<path d="M0 1672.44 L0 1778.74 L-283.46 1778.74 L-283.46 1793.96" class="st2"/>
		</g>
		<g id="shape136-327" transform="translate(1812.76,-478.175)">
			<title>Dynamic connector.136</title>
			<path d="M0 1672.44 L0 1693.7 L-425.2 1693.7 L-425.2 1708.92" class="st2"/>
		</g>
		<g id="shape137-332" transform="translate(1954.49,-563.214)">
			<title>Dynamic connector.137</title>
			<path d="M0 1672.44 L0 1778.74 L-566.93 1778.74 L-566.93 1793.96" class="st2"/>
		</g>
		<g id="shape138-337" transform="translate(2096.22,-563.214)">
			<title>Dynamic connector.138</title>
			<path d="M0 1672.44 L0 1778.74 L-708.66 1778.74 L-708.66 1793.96" class="st2"/>
		</g>
		<g id="shape139-342" transform="translate(2237.95,-563.214)">
			<title>Dynamic connector.139</title>
			<path d="M0 1672.44 L0 1778.74 L-850.39 1778.74 L-850.39 1793.96" class="st2"/>
		</g>
		<g id="shape140-347" transform="translate(2379.69,-563.214)">
			<title>Dynamic connector.140</title>
			<path d="M0 1672.44 L0 1778.74 L-992.13 1778.74 L-992.13 1793.96" class="st2"/>
		</g>
		<g id="shape141-352" transform="translate(820.63,-648.254)">
			<title>Dynamic connector.141</title>
			<path d="M0 1672.44 L0 1863.78 L566.93 1863.78 L566.93 1879" class="st2"/>
		</g>
	</g>
</svg>
